<svg version="1.1" id="Layer_1" xmlns="http://www.w3.org/2000/svg" xmlns:xlink="http://www.w3.org/1999/xlink" x="0px" y="0px"
                 width="670px" height="119px" viewBox="0 0 670 119" enable-background="new 0 0 670 119" xml:space="preserve">
                <g>
                    <path fill="#4193D0" d="M13.193,4.536c3.873,2.16,8.117,3.658,12.065,5.703c2.769,1.436,5.34,3.27,7.942,5.012
            c0.537,0.359,0.904,1.053,1.222,1.655c2.739,5.261,5.267,10.641,8.231,15.776c1.817,3.151,4.135,6.065,6.512,8.84
            c1.479,1.734,3.418,3.106,5.265,4.496c2.214,1.662,4.792,1.238,7.252-0.924c1.337-1.172,2.657-2.439,4.158-3.357
            c2.934-1.765,6.079-1.705,9.196-0.451c0.584,0.236,1.161,0.841,1.441,1.424c0.48,0.979,1.152,1.561,1.948,1.916
            c0.157,0.042,0.306,0.1,0.445,0.177c0.051,0.015,0.104,0.03,0.156,0.044c0.228-0.021,0.473,0,0.7,0.094l0.35,0.139
            c0.226,0.029,0.462,0.061,0.698,0.082c0.332,0.03,0.646,0.145,0.977,0.268c0.421,0.051,0.822,0.236,1.137,0.551l0.699,0.702
            c0.436,0.425,0.62,1.017,0.558,1.585c0.009,0.052,0.018,0.094,0.018,0.148c-0.018,1.141-0.261,2.229-1.415,2.724
            c-0.28,0.118-0.865-0.24-1.196-0.517c-1.546-1.303-2.332-1.399-4.139-0.545c-1.102,0.521-2.28,0.881-3.363,1.424
            c-0.438,0.226-0.943,0.689-1.048,1.136c-0.28,1.099-0.35,2.241-0.473,3.362c-0.103,0.955,0,1.971-0.296,2.855
            c-0.419,1.265-0.043,2.084,0.925,2.818c2.245,1.716,4.419,3.527,6.742,5.152c3.625,2.531,7.634,4.383,11.782,5.893
            c0.776,0.289,1.553,0.568,2.332,0.848c1.056,0.298,2.077,0.673,3.056,1.119c2.077,0.758,4.139,1.518,6.218,2.264
            c2.375,0.845,3.354,2.922,4.401,4.932c1.957,3.737,3.598,7.686,5.94,11.16c2.069,3.072,3.663,6.365,5.249,9.665V0.305H2.378
            C6.069,1.453,9.751,2.614,13.193,4.536z"/>
                    <path fill="#4193D0" d="M117.294,117.37c-0.488-0.42-0.829-1.004-1.274-1.483c-0.489-0.505-0.934-1.224-1.538-1.417
            c-1.536-0.469-2.339-1.527-2.985-2.871c-0.131-0.271-0.56-0.391-0.804-0.629c-0.743-0.725-1.45-1.475-2.184-2.209
            c-0.506-0.489-1.047-0.959-1.528-1.466c-0.498-0.536-1.055-1.043-1.397-1.663c-1.161-2.174-2.227-4.398-3.361-6.581
            c-1.154-2.237-2.264-4.497-3.563-6.64c-0.576-0.942-1.458-1.867-2.428-2.374c-2.411-1.257-5.013-2.097-7.711-2.64
            c-1.075-0.216-2.069-0.87-3.118-1.255c-0.717-0.253-1.502-0.323-2.22-0.569c-2.505-0.83-4.978-1.738-7.491-2.539
            c-2.035-0.666-4.13-1.164-6.166-1.837c-3.651-1.187-7.267-2.53-10.935-3.667c-1.101-0.331-2.296-0.523-3.421,0.479
            c-2.272,2.011-5.067,2.981-7.983,3.714c-2.407,0.603-4.754,1.431-7.109,2.22c-2.175,0.732-3.589,2.311-4.419,4.383
            c-0.594,1.475-1.774,1.782-3.109,1.867c-0.917,0.054-1.802,0.141-2.642,0.403c-0.55,0.314-1.121,0.603-1.715,0.854
            c-0.114,0.088-0.233,0.185-0.35,0.29c-0.847,0.761-1.982,1.204-2.956,1.772c-0.781-0.801-1.419-1.469-2.126-2.201
            c-1.499,0.732-1.499,0.732-2.952-2.27c1.326-0.787,2.658-1.583,4.038-2.404c-0.288-1.229-0.629-2.434-0.812-3.676
            c-0.048-0.314,0.322-0.925,0.638-1.047c5.947-2.375,9.038-7.23,11.487-12.779c0.922-2.084,2.284-3.979,3.516-5.918
            c0.45-0.709,0.759-3.45,0.417-4.201c-0.292-0.646-0.357-1.393-0.65-2.039c-0.37-0.813-0.864-1.568-1.317-2.34
            c-0.211-0.354-0.454-0.689-0.556-1.097c-0.318-0.302-0.746-0.55-0.93-0.917c-0.402-0.821-0.445-2.15-1.052-2.471
            c-2.03-1.067-1.899-3.508-3.481-4.858c-0.837-0.718-1.104-2.093-1.685-3.14c-0.191-0.361-0.396-0.709-0.598-1.063
            c-0.83-0.895-1.44-1.979-1.821-3.175c-0.122-0.228-0.245-0.446-0.362-0.673c-0.918-1.777-1.667-3.642-2.576-5.424
            c-0.345-0.672-0.986-1.191-1.384-1.852c-0.34-0.563-0.516-1.223-0.772-1.836c-0.145-0.348-0.312-0.687-0.454-1.033
            c-0.359-0.854-0.708-1.715-1.062-2.577c-0.411-0.993-0.875-1.823-1.973-2.388c-1.406-0.723-2.599-1.865-3.9-2.805
            c-0.48-0.352-0.975-0.748-1.523-0.947c-1.663-0.596-3.336-1.448-5.053-1.572c-2.576-0.182-4.488-1.793-6.746-2.622
            c-0.257-0.093-0.621-0.132-0.991-0.214v105h118.671v-0.333C118.349,118.219,117.818,117.801,117.294,117.37z"/>
                    <linearGradient id="SVGID_1_" gradientUnits="userSpaceOnUse" x1="-20.9683" y1="35.1509" x2="90.8672" y2="146.9863">
                        <stop  offset="0" style="stop-color: #000000; stop-opacity: 0"/>
                        <stop  offset="1" style="stop-color: #000000"/>
                    </linearGradient>
                    <path opacity="0.15" fill="url(#SVGID_1_)" d="M117.294,117.37c-0.488-0.42-0.829-1.004-1.274-1.483
            c-0.489-0.505-0.934-1.224-1.538-1.417c-1.536-0.469-2.339-1.527-2.985-2.871c-0.131-0.271-0.56-0.391-0.804-0.629
            c-0.743-0.725-1.45-1.475-2.184-2.209c-0.506-0.489-1.047-0.959-1.528-1.466c-0.498-0.536-1.055-1.043-1.397-1.663
            c-1.161-2.174-2.227-4.398-3.361-6.581c-1.154-2.237-2.264-4.497-3.563-6.64c-0.576-0.942-1.458-1.867-2.428-2.374
            c-2.411-1.257-5.013-2.097-7.711-2.64c-1.075-0.216-2.069-0.87-3.118-1.255c-0.717-0.253-1.502-0.323-2.22-0.569
            c-2.505-0.83-4.978-1.738-7.491-2.539c-2.035-0.666-4.13-1.164-6.166-1.837c-3.651-1.187-7.267-2.53-10.935-3.667
            c-1.101-0.331-2.296-0.523-3.421,0.479c-2.272,2.011-5.067,2.981-7.983,3.714c-2.407,0.603-4.754,1.431-7.109,2.22
            c-2.175,0.732-3.589,2.311-4.419,4.383c-0.594,1.475-1.774,1.782-3.109,1.867c-0.917,0.054-1.802,0.141-2.642,0.403
            c-0.55,0.314-1.121,0.603-1.715,0.854c-0.114,0.088-0.233,0.185-0.35,0.29c-0.847,0.761-1.982,1.204-2.956,1.772
            c-0.781-0.801-1.419-1.469-2.126-2.201c-1.499,0.732-1.499,0.732-2.952-2.27c1.326-0.787,2.658-1.583,4.038-2.404
            c-0.288-1.229-0.629-2.434-0.812-3.676c-0.048-0.314,0.322-0.925,0.638-1.047c5.947-2.375,9.038-7.23,11.487-12.779
            c0.922-2.084,2.284-3.979,3.516-5.918c0.45-0.709,0.759-3.45,0.417-4.201c-0.292-0.646-0.357-1.393-0.65-2.039
            c-0.37-0.813-0.864-1.568-1.317-2.34c-0.211-0.354-0.454-0.689-0.556-1.097c-0.318-0.302-0.746-0.55-0.93-0.917
            c-0.402-0.821-0.445-2.15-1.052-2.471c-2.03-1.067-1.899-3.508-3.481-4.858c-0.837-0.718-1.104-2.093-1.685-3.14
            c-0.191-0.361-0.396-0.709-0.598-1.063c-0.83-0.895-1.44-1.979-1.821-3.175c-0.122-0.228-0.245-0.446-0.362-0.673
            c-0.918-1.777-1.667-3.642-2.576-5.424c-0.345-0.672-0.986-1.191-1.384-1.852c-0.34-0.563-0.516-1.223-0.772-1.836
            c-0.145-0.348-0.312-0.687-0.454-1.033c-0.359-0.854-0.708-1.715-1.062-2.577c-0.411-0.993-0.875-1.823-1.973-2.388
            c-1.406-0.723-2.599-1.865-3.9-2.805c-0.48-0.352-0.975-0.748-1.523-0.947c-1.663-0.596-3.336-1.448-5.053-1.572
            c-2.576-0.182-4.488-1.793-6.746-2.622c-0.257-0.093-0.621-0.132-0.991-0.214v105h118.671v-0.333
            C118.349,118.219,117.818,117.801,117.294,117.37z"/>
                </g>
                <g>
                    <path fill="#454A4C" d="M255.036,14.523h9.816c-4.182,4.001-8.432,14.93-12.748,32.792c-4.318,17.861-6.477,31.655-6.477,41.381
            c0,6.909,1.271,11.681,3.817,14.316c1.091,1.183,2.454,1.772,4.091,1.772c1.636,0,3.361-0.59,5.181-1.772l0.818,1.228
            c-1.274,1.819-3.545,3.387-6.817,4.703c-3.272,1.317-6.5,1.978-9.681,1.978c-4.727,0-7.955-1.681-9.681-5.045
            c-1.728-3.362-2.727-7.861-3-13.498c0-4.636,0.59-10.636,1.772-17.998h-31.223c-13.545,14.363-24.18,26.134-31.905,35.313h-13.635
            c8.543-7.816,21.815-20.633,39.813-38.449c23.179-23.087,38.403-39.084,45.676-47.994c1.817-2.182,3.18-3.703,4.09-4.568
            c0.907-0.863,2.294-1.772,4.158-2.727C250.967,15,252.943,14.523,255.036,14.523z M217.541,14.523h30.542
            c-2.273,2.273-6.228,4.001-11.862,5.181c-5.637,1.183-11.998,2.114-19.088,2.795c-7.09,0.682-11.726,1.25-13.907,1.704
            c-9.728,2.273-14.589,8.091-14.589,17.453c-2.819-2.908-4.227-6.044-4.227-9.408C184.408,20.433,195.453,14.523,217.541,14.523z
             M240.992,33.748c-10.362,9.728-21.726,20.997-34.087,33.813h26.179C234.72,58.563,237.355,47.293,240.992,33.748z"/>
                    <path fill="#454A4C" d="M312.575,26.521c-3.272,6.636-8.272,14.159-14.999,22.565c-6.729,8.409-12.772,15.157-18.135,20.247
            l-2.182,6.272c-1.09,3.183-2.137,7.045-3.136,11.589c-1.001,4.547-1.455,7.771-1.363,9.681c0,2.727,0.999,4.091,3,4.091
            c1.998,0,4.384-1.136,7.158-3.409c2.771-2.271,4.793-4.248,6.067-5.931c1.271-1.681,2.748-3.886,4.431-6.613
            c1.682-2.727,3.137-5.089,4.363-7.09c1.228-1.998,1.931-2.999,2.114-2.999c0.546,0,0.818,0.841,0.818,2.521
            c0,1.684-0.456,3.296-1.364,4.841c-5,8.453-9.046,14.408-12.135,17.861c-6.272,6.909-12.728,10.362-19.361,10.362
            c-5.092,0-7.636-3.453-7.636-10.362c0-6.817,3.045-18.725,9.136-35.723c0.453-1.453,1.499-4.5,3.136-9.135
            c1.636-4.636,3.044-8.249,4.227-10.839c1.181-2.59,2.771-6.021,4.772-10.294c1.998-4.271,3.931-7.68,5.794-10.226
            c1.862-2.544,3.931-5.134,6.204-7.772c4.453-5.271,9.272-7.908,14.454-7.908c5.181,0,7.771,2.365,7.771,7.09
            C315.71,18.978,314.665,22.704,312.575,26.521z M309.711,11.66h-0.955c-5.545,0-14.408,16.634-26.587,49.903
            c12.452-14.634,20.951-26.632,25.497-35.995c2.544-5.727,3.818-9.476,3.818-11.249S310.891,11.66,309.711,11.66z"/>
                    <path fill="#454A4C" d="M360.431,74.788c0.545,0,0.816,0.842,0.816,2.522c0,1.683-0.271,2.979-0.816,3.886l-3,5.045
            c-4.455,7.362-8.092,12.271-10.908,14.726c-3.092,2.818-6.09,4.227-8.998,4.227c-3.819,0-6.365-1.772-7.636-5.317
            c-3.729,3.728-7.499,6.523-11.316,8.385c-3.818,1.862-8.092,2.795-12.816,2.795c-4.728,0-8.069-0.749-10.022-2.249
            c-1.956-1.5-2.932-3.999-2.932-7.499c0-3.498,0.545-7.476,1.636-11.931c2.816-11.998,7.544-26.11,14.181-42.335
            c6.634-16.226,11.861-24.836,15.68-25.838c1.18-0.272,3.34-0.43,6.477-0.477c3.136-0.045,5.021-0.113,5.658-0.205
            c-3.544,2.637-8.34,10.362-14.384,23.179c-6.046,12.817-10.613,25.135-13.703,36.949c9.817-17.36,19.089-26.042,27.816-26.042
            c6.18,0,9.271,4.431,9.271,13.293s-3.729,17.885-11.181,27.064c0.09,1.547,0.545,2.774,1.363,3.682
            c0.818,0.91,1.863,1.363,3.137,1.363c1.271,0,2.658-0.566,4.158-1.704c1.5-1.136,2.635-2.135,3.408-3
            c0.771-0.862,1.795-2.113,3.068-3.749c1.271-1.636,2.771-3.839,4.5-6.613c1.725-2.771,3.203-5.157,4.432-7.157
            C359.544,75.789,360.247,74.788,360.431,74.788z M330.161,66.198c-0.272-0.09-0.978-0.137-2.113-0.137
            c-1.138,0-3.272,1.183-6.408,3.545c-3.136,2.365-6.796,6.886-10.976,13.566c-4.182,6.682-6.272,12.182-6.272,16.498
            c0,4.318,1.317,6.477,3.954,6.477c4.817,0,9.998-4.657,15.544-13.976c5.543-9.316,8.317-16.655,8.317-22.02
            C332.207,67.881,331.525,66.563,330.161,66.198z"/>
                    <path fill="#454A4C" d="M410.604,55.154l6.816,0.136h1.363c-2.998,2.455-6.68,8.658-11.043,18.611
            c-4.363,9.954-6.545,17.203-6.545,21.748c0,2.364,0.818,3.545,2.455,3.545c5.27,0,11.998-7.772,20.178-23.315
            c0.363-0.635,0.682-0.954,0.955-0.954c0.545,0,0.818,0.841,0.818,2.521c0,1.684-0.457,3.296-1.363,4.841
            c-11.182,18.815-20.543,28.224-28.088,28.224c-4.908,0-7.363-3.771-7.363-11.316c0-5.636,0.955-11.181,2.863-16.635
            c-10.361,18.362-19.953,27.542-28.768,27.542c-6.092,0-9.137-4.18-9.137-12.544c0-6.361,1.385-12.816,4.16-19.361
            c2.771-6.544,6.748-12.111,11.93-16.702c5.182-4.588,10.861-6.885,17.043-6.885c2.908,0,5.635,0.661,8.182,1.977
            c2.543,1.319,4.227,3.432,5.045,6.34c0.998-2.09,2.543-3.907,4.635-5.454C406.831,55.928,408.784,55.154,410.604,55.154z
             M399.288,64.153c-0.91-2.908-3.047-4.363-6.408-4.363c-6,0-11.818,4.158-17.453,12.476c-5.637,8.317-8.453,15.748-8.453,22.293
            c0,2.818,1.09,4.227,3.271,4.227c2.363,0,5.135-1.477,8.318-4.432c3.18-2.952,6.043-6.43,8.59-10.431
            C392.788,75.016,396.833,68.427,399.288,64.153z"/>
                    <path fill="#454A4C" d="M461.597,31.566c-4.455,3.091-9.455,11-14.998,23.724h13.771l0.137,0.137c0,0.456-0.502,1.25-1.5,2.386
            c-1.002,1.138-1.865,1.705-2.59,1.705H444.69c-7.182,17.816-10.771,29.27-10.771,34.358c0,3.456,1.09,5.182,3.271,5.182
            c3.182,0,6.908-2.727,11.182-8.181c0.998-1.181,2.318-3.181,3.953-5.999c4.18-6.726,6.361-10.09,6.545-10.09
            c0.545,0,0.818,0.729,0.818,2.182c-0.092,3.455-3.865,10.181-11.316,20.179c-2.455,3.272-5.41,6.319-8.863,9.136
            c-3.455,2.818-6.592,4.227-9.408,4.227c-5.18,0-7.771-3.635-7.771-10.908c0-6.088,1.453-13.089,4.363-20.997V78.47
            c-1.729,3.183-3.203,5.545-4.432,7.09c-1.227,1.547-1.932,2.317-2.113,2.317c-0.363,0-0.545-0.566-0.545-1.704
            c0-1.136,0.613-2.977,1.84-5.522c1.229-2.543,2.908-5.862,5.045-9.953c2.135-4.09,3.887-7.816,5.25-11.18h-9.135
            c-0.273,0-0.41-0.205-0.41-0.614s0.342-1.112,1.023-2.113c0.682-0.999,1.203-1.5,1.568-1.5h10.361
            c6.545-15.725,13.18-23.588,19.906-23.588C458.96,31.703,461.142,31.658,461.597,31.566z"/>
                    <path fill="#454A4C" d="M489.819,54.882l6.955,0.136h1.363c-1.363,1.001-3.297,3.954-5.795,8.862
            c-2.502,4.909-4.363,8.613-5.59,11.112c-1.229,2.501-2.592,5.863-4.092,10.09s-2.25,7.659-2.25,10.294
            c0,2.638,0.908,3.954,2.729,3.954c1.18-0.089,2.84-0.931,4.977-2.522c2.135-1.589,3.906-3.272,5.316-5.045
            c1.408-1.772,2.953-4.043,4.637-6.817c1.68-2.771,3.135-5.181,4.363-7.226c1.227-2.046,1.93-3.068,2.113-3.068
            c0.635,0,0.953,0.842,0.953,2.522c0,1.684-0.455,3.296-1.363,4.841c-3.908,6.455-7.137,11.408-9.68,14.861
            c-2.547,3.456-5.613,6.613-9.203,9.477c-3.592,2.863-6.842,4.295-9.75,4.295c-5.18,0-7.771-3.818-7.771-11.453
            c0-5.182,1-11.044,3-17.589c1.998-6.545,4.953-12.861,8.863-18.952c-3.184,2.546-6.365,3.817-9.545,3.817
            c-1.002,0-2.045-0.226-3.137-0.682c-6.455,12.728-9.932,19.089-10.43,19.089c-0.5,0-0.75-0.75-0.75-2.25s0.566-3.59,1.705-6.271
            c1.135-2.681,2.361-5.25,3.68-7.704s2.023-3.817,2.113-4.091c-3.271-1.636-4.908-4.271-4.908-7.907
            c0-1.817,0.566-3.454,1.705-4.909c1.135-1.453,2.703-2.182,4.703-2.182s3.635,0.637,4.908,1.909
            c-0.182,0.545-0.271,1.363-0.271,2.454c0,2.454,0.887,4.387,2.658,5.795c1.773,1.41,3.932,2.113,6.477,2.113
            c0.727,0,1.271-0.045,1.637-0.136C483.319,57.155,486.548,54.882,489.819,54.882z"/>
                    <path fill="#454A4C" d="M564.673,76.151c0.273-0.545,0.545-0.818,0.818-0.818c0.545,0,0.818,0.682,0.818,2.046
            c0,4.362-1.752,7.976-5.25,10.839c-3.5,2.863-6.771,4.295-9.816,4.295c-3.047,0-5.658-0.862-7.84-2.59
            c-3.273,6.455-7.158,11.544-11.658,15.271c-4.498,3.729-10.293,5.59-17.383,5.59c-4.547,0-8.25-1.385-11.113-4.158
            c-2.863-2.771-4.295-6.999-4.295-12.681c0-5.68,1.295-11.542,3.887-17.588c2.59-6.045,6.496-11.249,11.725-15.612
            c5.227-4.363,11.066-6.544,17.521-6.544c10.816,0,16.225,5.727,16.225,17.179c0,4.363-0.955,8.954-2.863,13.771
            c1.363,1.909,3.316,2.863,5.863,2.863C556.036,88.014,560.491,84.06,564.673,76.151z M541.903,67.698
            c-0.365-4.817-2.545-7.227-6.545-7.227c-6.271,0-12.406,6.091-18.406,18.271c-3.273,6.728-4.908,12.816-4.908,18.271
            c0,5.453,2.361,8.316,7.09,8.59c3.906,0,7.52-2.066,10.84-6.204c3.316-4.135,6.111-8.703,8.385-13.703
            c-3.092-2.635-4.637-5.952-4.637-9.953c0-2.454,0.658-4.407,1.979-5.862c1.316-1.453,3.111-2.182,5.385-2.182H541.903z"/>
                    <path fill="#454A4C" d="M616.894,82.015c-6.818,11.363-13,19.271-18.543,23.724c-5.547,4.453-12.729,6.682-21.543,6.682
            c-5.092,0-9.363-0.979-12.816-2.932c-3.455-1.954-5.182-4.841-5.182-8.658c0-2.182,0.635-4.18,1.908-5.999
            c1.273-1.817,3.021-2.728,5.25-2.728c2.227,0,3.658,0.818,4.295,2.455c-1.729,1.728-2.59,3.728-2.59,5.999
            c0,4.546,2.543,6.817,7.635,6.817c3,0,5.611-1.044,7.84-3.136c2.227-2.091,3.34-4.385,3.34-6.886c0-2.499-0.545-4.704-1.635-6.613
            c-1.092-1.908-2.41-3.59-3.955-5.045c-1.547-1.452-3.092-2.907-4.635-4.362c-3.729-3.545-5.592-7.612-5.592-12.203
            c0-4.589,1.75-8.454,5.25-11.589c3.498-3.136,8.293-4.704,14.385-4.704c3.818,0,7.043,0.682,9.68,2.045
            c2.637,1.363,3.955,3.477,3.955,6.34s-0.865,5.341-2.592,7.431c-1.727,2.092-4.068,3.136-7.021,3.136
            c-2.955,0-4.432-1.363-4.432-4.09c0-0.635,1.045-1.59,3.137-2.863c2.09-1.272,3.137-2.591,3.137-3.954s-0.57-2.386-1.705-3.068
            c-1.137-0.682-2.75-1.022-4.84-1.022c-2.092,0-4.113,0.729-6.068,2.182c-1.955,1.456-2.932,3.364-2.932,5.726
            c0,2.365,1,4.591,3,6.681c1.998,2.093,4.18,3.865,6.545,5.318c2.363,1.455,4.545,3.477,6.545,6.067c1.998,2.59,3,5.317,3,8.181
            s-0.66,5.433-1.977,7.703c-1.32,2.273-2.887,4.091-4.705,5.454c5.09-2.182,10.498-7.636,16.225-16.361
            c0.547-0.727,1.5-2.227,2.863-4.5c3.182-5.727,4.953-8.59,5.318-8.59c0.545,0,0.818,0.842,0.818,2.522
            C618.257,78.857,617.8,80.47,616.894,82.015z"/>
                    <path fill="#454A4C" d="M668.431,82.015c-6.818,11.363-13,19.271-18.543,23.724c-5.547,4.453-12.729,6.682-21.543,6.682
            c-5.092,0-9.363-0.979-12.816-2.932c-3.455-1.954-5.182-4.841-5.182-8.658c0-2.182,0.635-4.18,1.908-5.999
            c1.273-1.817,3.021-2.728,5.25-2.728c2.227,0,3.658,0.818,4.295,2.455c-1.729,1.728-2.59,3.728-2.59,5.999
            c0,4.546,2.543,6.817,7.635,6.817c3,0,5.611-1.044,7.84-3.136c2.227-2.091,3.34-4.385,3.34-6.886c0-2.499-0.545-4.704-1.635-6.613
            c-1.092-1.908-2.41-3.59-3.955-5.045c-1.547-1.452-3.092-2.907-4.635-4.362c-3.729-3.545-5.592-7.612-5.592-12.203
            c0-4.589,1.75-8.454,5.25-11.589c3.498-3.136,8.293-4.704,14.385-4.704c3.818,0,7.043,0.682,9.68,2.045
            c2.637,1.363,3.955,3.477,3.955,6.34s-0.865,5.341-2.592,7.431c-1.727,2.092-4.068,3.136-7.021,3.136
            c-2.955,0-4.432-1.363-4.432-4.09c0-0.635,1.045-1.59,3.137-2.863c2.09-1.272,3.137-2.591,3.137-3.954s-0.57-2.386-1.705-3.068
            c-1.137-0.682-2.75-1.022-4.84-1.022c-2.092,0-4.113,0.729-6.068,2.182c-1.955,1.456-2.932,3.364-2.932,5.726
            c0,2.365,1,4.591,3,6.681c1.998,2.093,4.18,3.865,6.545,5.318c2.363,1.455,4.545,3.477,6.545,6.067c1.998,2.59,3,5.317,3,8.181
            s-0.66,5.433-1.977,7.703c-1.32,2.273-2.887,4.091-4.705,5.454c5.09-2.182,10.498-7.636,16.225-16.361
            c0.547-0.727,1.5-2.227,2.863-4.5c3.182-5.727,4.953-8.59,5.318-8.59c0.545,0,0.818,0.842,0.818,2.522
            C669.794,78.857,669.337,80.47,668.431,82.015z"/>
                </g>
            </svg>