<?xml version="1.0" encoding="utf-8"?>
<!-- Generator: Adobe Illustrator 18.1.1, SVG Export Plug-In . SVG Version: 6.00 Build 0)  -->
<svg version="1.1" id="Layer_1" xmlns="http://www.w3.org/2000/svg" xmlns:xlink="http://www.w3.org/1999/xlink" x="0px" y="0px"
	 viewBox="0 0 326 87" enable-background="new 0 0 326 87" xml:space="preserve">
<g>
	
		<radialGradient id="SVGID_1_" cx="255.2764" cy="-203.4879" r="132.1903" gradientTransform="matrix(-0.1327 -0.9912 0.9912 -0.1327 280.0952 248.7529)" gradientUnits="userSpaceOnUse">
		<stop  offset="0" style="stop-color:#43494A"/>
		<stop  offset="0.2261" style="stop-color:#4F6166"/>
		<stop  offset="1" style="stop-color:#6DCFF6"/>
	</radialGradient>
	<path fill="url(#SVGID_1_)" d="M52.9,28.7c-0.3,0.3-0.8,0.2-1.1,0.4c-0.4,0.2-0.6,0.8-0.9,1.1c-0.9,1.4,0.6,1.7,1.4,2.4
		c-0.4,0.7-1.2,1.4-1.3,2.3c-0.1,0.5,0.2,0.8,0.5,1.2c0.3,0.4,0,0.7-0.2,1.1c-0.4,0.8-1.4,0.8-2,1.3c-0.4,0.3-0.8,0.5-1,0.9
		c-0.3,0.6,0.1,1.1,0.2,1.7c0,0.6-1.8,1-0.8,1.8c0.4,0.3,0.9,0.1,1.3,0.4c0,0.1-0.1,0.4-0.1,0.5c-0.1,0.4,0,0.7,0.1,1
		c0.2,0.6,0.3,1.1,0.6,1.6c0.2,0.3,0.3,0.5,0.1,0.9c-0.4,0.9-0.6,1.3,0.4,1.9c0.3,0.2,0.5,0.2,0.3,0.6c-0.1,0.3-0.3,0.6-0.4,0.9
		c-0.3,0.9,1.4,1,1.2,1.5c-0.2,0.7-0.6,1.5-1.4,1.2c-1.3-0.5-2.1,0.1-3.2,0.7c-0.5,0.3-0.8,0.6-0.7,1.2c0.1,0.4,0.1,1,0.3,1.4
		c0.3,0.6,0.9,1.1,0.2,1.6c-0.6,0.4-1.6,1.8-1.1,2.5c0.2,0.3,0.8,0.7,0.5,1.2c-0.3,0.5-0.6,0.6-0.7,1.2c-0.1,0.7,0,1.4,0.6,1.9
		c0.6,0.4,0.7,0.6,0.1,1c-0.5,0.3-1.3,0.9-0.5,1.3c0.5,0.3,1.2,0.2,1.5,0.8c0.3,0.5,0.4,1.1,0.1,1.7c-0.4,0.6-0.5,1,0,1.6
		c0.5,0.6,0.7,1,0.7,1.7c0.1,0.8-0.4,1.3-0.7,1.9c-0.4,0.7-0.8,1.2-0.6,2c0.2,0.8,0,1.1-0.6,1.6c-0.5,0.5,0,1.3,0.4,1.8
		c0.3,0.4,0.9,0.4,1.3,0.5c1.3,0.4-0.5,1.3-0.7,1.9c-0.2,0.4,1.3,1.8,1.2,1.9c0.1-0.1-1.2-1.4-1.2-1.7c0-0.8,1.5-1,1.4-1.8
		c-0.1-0.5-0.9-0.5-1.2-0.5c-0.6-0.1-1-0.8-1.2-1.4c-0.2-0.6,0.6-0.9,0.9-1.4c0.3-0.6-0.2-1.3,0.2-2c0.4-0.6,0.8-1.2,1.1-1.9
		c0.4-0.6,0.1-1.4,0-2.1c-0.1-0.6-1-0.9-0.9-1.5c0.1-0.6,0.6-1,0.6-1.6c-0.1-1.2-0.8-1.6-1.7-2c-0.5-0.2-0.5-0.3,0-0.6
		c0.3-0.2,1.1-0.5,1-1c0.3,0.3,0.7,0.3,1.1,0.4c0.7,0.2,1.3,0.7,1.9,1c0.6,0.3,1,0.7,1.4,1.1c0.4,0.4,1,0.6,1.4,1
		c0.4,0.4,0.7,0.9,0.8,1.4c0.1,0.5,0,1.1,0.5,1.5c0.5,0.4,0.8,0.4,1,1c0.2,0.5,0.3,1.1,0.6,1.6c0.3,0.6,0.5,0.9,0.4,1.5
		c0,0.7,0.2,1.4,0.4,2.1c0.4,1.3,0.8,2.6,1.5,3.8c0.2,0.4,0.5,0.8,1,1c0.5,0.2,1,0.2,1.4,0.5c0.6,0.4,0.7,0.9,0.8,1.6
		c0.1,0.6,0.4,1,0.8,1.4c-0.3-0.3-0.5-0.7-0.7-1.1c-0.1-0.5-0.1-1.1-0.5-1.6c-0.4-0.4-0.9-0.8-1.5-0.8c-0.7-0.1-1-0.6-1.3-1.2
		c-0.6-1-1-2.3-1.3-3.4c-0.2-0.6-0.4-1.2-0.4-1.9c0-0.7,0-1.2-0.3-1.8c0.4,0.6,0.9,1.1,1.4,1.7c0.4,0.5,0.8,1,1.5,1
		c0.8-0.1,1.9-0.2,2.6,0.1c0.8,0.3,1.5,1,2.3,1.4c0.8,0.4,1.4,0.5,2,1.2c0.5,0.6,1,1.2,1.6,1.7c0.6,0.4,1.2,0.9,1.5,1.5
		c0.1,0.1,0.6,1.1,0.5,1.1c0.2-0.2-0.5-1.3-0.7-1.5c-0.7-0.9-1.7-1.5-2.4-2.4c-0.7-0.9-1.2-1.4-2.2-1.9c-0.5-0.2-1-0.5-1.5-0.9
		c-0.4-0.3-0.8-0.7-1.4-0.8c-0.6-0.1-1.2-0.2-1.8-0.2c-0.4,0-0.9,0.1-1.3-0.2c-0.4-0.4-0.6-0.9-1-1.3c-0.4-0.4-0.8-0.9-1.1-1.4
		c-0.5-0.8-0.7-1.5-1.5-1.9c-0.5-0.3-0.5-0.6-0.5-1.1c0-0.7-0.4-1.3-0.8-1.8c-0.3-0.4-0.7-0.6-1.1-0.9c-0.4-0.3-0.7-0.7-1-1
		c-0.8-0.8-2.1-1.5-3.1-1.8c-0.7-0.2-2.2-0.3-2.3-1.2c0-0.4-0.1-0.9,0.1-1.2c0.2-0.4,0.8-0.7,0.7-1.2c-0.1-0.4-0.5-0.7-0.7-1.1
		c-0.1-0.3,0.5-1.1,0.6-1.4c0-0.3,0.6-0.5,0.8-0.7c0.5-0.5,0.2-0.9-0.1-1.4c-0.3-0.4-0.7-1.8-0.4-2.2c0.3-0.3,0.8-0.4,1.1-0.7
		c0.5-0.3,1-0.5,1.6-0.3c1,0.3,1.6,0.3,2.2-0.7c0.3-0.4,0.5-0.9,0.3-1.3c-0.3-0.3-0.7-0.6-1-0.9c-0.5-0.4,0.7-1,0.3-1.8
		c-0.2-0.4-0.7-0.6-1-0.9c-0.4-0.3,0.1-0.7,0.3-0.9c0.5,0.7,1.3,0.8,1.4,1.7c0.1,1,0.7,1.6,1,2.5c0.3,0.9,0.5,1.5,1.2,2.2
		c0.6,0.6,1.3,1,1.7,1.7c0.3,0.6,0.7,0.8,1.3,0.7c0.9-0.1,1,0,1.4,0.8c0.4,0.9,1.2,0.4,1.9,0.7c0.6,0.3,1.1,1.1,1.6,1.5
		c1.4,1,1.9,2.8,3.4,3.5c0.5,0.3,1.4,0.1,1.8,0.5c0.2,0.2,0.2,0.6,0.4,0.9c0.2,0.3,0.5,0.5,0.8,0.7c0.3,0.2,0.7,0.4,0.8,0.7
		c0.1,0.3,0,0.7,0.1,1c0.3,0.8,1.5,0.1,1.8,1c0.3,0.8,0.6,0.9,1.3,1c0.6,0,1.2,0.7,1.5,1.2c-0.1-0.6-1.1-1.2-1.6-1.2
		c-0.6-0.1-0.8-0.4-1.1-0.9c-0.3-0.7-0.8-0.6-1.4-0.8c-0.7-0.2-0.3-1.1-0.6-1.6c-0.4-0.5-1.1-0.6-1.4-1.2c-0.2-0.5-0.3-1.1-1-1.2
		c-0.7-0.2-1.2-0.2-1.8-0.7c-0.7-0.6-1.2-1.3-1.7-2.1c0.7,0.4,1.4,0.7,2.2,1c0.6,0.3,0.8,0.9,1.6,0.8c0.7-0.1,1.8-0.3,2.5,0
		c0.9,0.4,1.5,0.4,2.4,0c0.4-0.2,0.6-0.5,0.9-0.7c0.4-0.2,0.9,0.1,1.3,0.2c1,0.2,1.9,0.3,2.9,0.4c0.5,0.1,0.9,0.1,1.4,0.3
		c0.4,0.3,0.8,0.5,1.2,0.6c0.5,0.2,1.2,0.3,1.7,0.3c0,0-1.4-0.3-1.6-0.3c-0.4-0.1-0.8-0.4-1.1-0.6c-0.5-0.3-1-0.3-1.5-0.4
		c-1.1-0.2-2.2-0.3-3.3-0.7c-0.5-0.2-1-0.2-1.4,0.2c-0.4,0.4-0.7,0.5-1.2,0.7c-0.5,0.1-0.8,0.1-1.2-0.1c-0.5-0.3-1-0.3-1.5-0.3
		c-0.6,0-1.1,0-1.7,0.1c-0.5,0.1-0.7-0.5-1.1-0.7c-0.8-0.6-1.9-0.7-2.7-1.4c-0.6-0.5-1.3-0.6-1.8-1.3c-0.3-0.3-0.5-0.7-1-0.8
		c-0.3-0.1-0.7,0-1.1-0.1c-0.7-0.3-0.6-1.3-1.5-1.4c-0.4,0-0.8,0.2-1.2,0c-0.3-0.2-0.5-0.6-0.7-0.9c-0.6-0.8-1.5-1.3-2.1-2.1
		c-0.3-0.5-0.3-1-0.5-1.5c-0.2-0.6-0.6-1-0.8-1.6c-0.1-0.5,0-1.1-0.4-1.6c-0.3-0.3-0.7-0.4-1-0.8c-0.3-0.4-0.4-0.9-0.9-1.1
		c-0.3-0.5-0.3-1-0.5-1.5c-0.2-0.5,0.1-1,0-1.5c-0.1-0.6-0.8-0.7-1.4-0.8c0.4-0.3,0.9-0.7,0.9-1.3c0-0.8-0.6-1.1,0.2-1.6
		c0.3-0.2,0.5-0.5,0.9-0.6c0.3-0.1,0.7-0.1,1-0.3c0.6-0.3,0.9-1.1,1.1-1.7c0.3-0.6-0.2-1.1-0.5-1.6c-0.2-0.3,0.4-1.2,0.6-1.5
		c0.3-0.4,0.8-0.8,0.7-1.4c-0.1-0.7-1.1-1.1-1.7-1.4c0.2-0.3,0.5-0.9,0.9-1c0.4-0.1,0.7-0.2,1.1-0.5c-0.2-0.3-0.5-0.6-0.7-0.9
		C52.9,28.6,52.9,28.6,52.9,28.7C52.6,28.9,52.9,28.6,52.9,28.7z"/>
	
		<radialGradient id="SVGID_2_" cx="255.2762" cy="-203.4879" r="132.1904" gradientTransform="matrix(-0.1327 -0.9912 0.9912 -0.1327 280.0952 248.7529)" gradientUnits="userSpaceOnUse">
		<stop  offset="0" style="stop-color:#43494A"/>
		<stop  offset="0.2261" style="stop-color:#4F6166"/>
		<stop  offset="1" style="stop-color:#6DCFF6"/>
	</radialGradient>
	<path fill="url(#SVGID_2_)" d="M133.6,3.9c-0.4,0.8-0.9,1.6-1.7,1.9c-0.5,0.2-1,0-1.6,0c-0.6,0-1.1,0.3-1.5,0.6
		c-0.8,0.6-1.6,1-1.8,2c-0.3,1.1-0.8,2-1.3,3c-0.4,0.1-0.6,0.6-0.7,1c0,0.1-0.1,0.9-0.3,0.7c-0.4-0.3-0.7-0.7-1.1-1
		c-0.2-0.2-1-1.2-1.3-0.6c-0.2,0.5-0.1,1,0,1.5c0,0.4,0,0.9,0,1.3c-0.9,0-2.2-2.4-2.7-0.3c-0.1,0.7-0.3,0.8-1,0.6
		c-0.9-0.2-1.4,0-1.8,0.9c-0.1,0.3-0.3,0.6-0.4,0.9c-0.1,0.3-0.4,0.3-0.6,0.6c-0.4,0.4-0.5,1.3,0,1.7c-0.1,0.7-1.2,0.3-1.7,0.4
		c-0.7,0.2-1.2-0.4-1.9,0.3c-0.4,0.5-1,0.5-1.4,1c-0.4,0.5-0.7,0.9-1.3,0.5c-0.5-0.3-0.9-0.7-1.6-0.5c-0.3,0.1-1.1,0.8-1.1,0.2
		c0-0.7,0-1.9-0.6-2.4c-0.8-0.8-1.6,1.5-2,1.9c-0.5-0.6-0.6-1.5-1.1-2.1c-0.7-0.7-1.1-0.1-1.4,0.6c-0.2,0.5-0.2,1-0.9,0.8
		c-0.8-0.2-1.7,0-2.5,0.3c-0.6,0.3-0.7,0.8-0.7,1.4c0,0.6,0.2,0.9-0.5,0.9c-0.6,0-1.4-0.1-1.6,0.6c-0.2,0.7,1,1.8,1.3,2.4
		c-0.5,0-1.3-0.1-1.6,0.4c-0.3,0.4-0.3,1-0.5,1.5c-0.3,0.6-0.6,1.2-1.1,1.7c-0.4,0.5-1.1-0.2-1.6-0.4c-0.5-0.2-1-0.1-1.2,0.5
		c-0.1,0.2-0.1,0.5-0.1,0.7c0,0.5-0.1,0.5-0.6,0.6c-0.6,0.1-1.1-0.1-1.7-0.2c-0.7,0-1.1,0.4-1.7,0.8c-0.4-0.6-0.4-1.5-1-1.9
		c-0.9-0.6-2.4-0.1-3.2,0.3c-0.7,0.4-1.6-0.6-2.2,0.2c-0.3,0.4-0.4,0.9-0.6,1.4c-0.1,0.1-0.2,0.3-0.2,0.5c-0.3,0-0.7-0.1-0.8,0.2
		c0-0.1-0.5-0.9-0.6-1c-0.3-0.5-0.5-1.1-1-1.4c-0.6-0.3-1.1,0.4-1.3,0.9c-0.1,0.3-0.2,0.6-0.4,0.9c-0.4,0.2-0.7,0.5-0.9,0.9
		c-0.4-0.5-0.7-1.3-1.4-1.4c-0.6-0.1-1.2,0.4-1.9,0.2c-0.7-0.2-1.3-0.4-1.8,0.2c-0.4,0.5-0.4,1.1-1,1.4c-0.7,0.4-1,0.3-1.8,0.2
		c-0.6-0.1-1-0.7-1.7-0.7c-0.7,0-1,0.7-1.1,1.3c0,0.4-0.1,1.6,0.2,1.8c-0.4,0.2-0.4,0.1-0.2,0.5c0.2,0.4,0.4,0.5,0.8,0.3
		c0.8-0.3,0.6-1.6,0.6-2.2c0.7,0.5,1.7,0.5,2.6,0.5c0.5,0,1.3-0.6,1.7-0.8c0.3-0.2,0.5-0.5,0.6-0.8c0.2-0.4,0.2-0.5,0.6-0.4
		c0.7,0.2,1.2,0.1,2-0.1c0.1-0.1,1,1.2,1.2,1.4c0.7,0.6,1.3,0,1.7-0.7c0.2-0.3,0.5-0.3,0.7-0.6c0.2-0.3,0.4-0.7,0.5-1
		c0.3,0.6,0.6,1.7,1.4,1.9c0.7,0.1,1.8,0,2.2-0.5c0.3-0.4,0.4-0.8,0.5-1.2c0.1-0.4,0.1-0.6,0.5-0.5c0.3,0,0.5,0.1,0.8,0.1
		c0.6,0,2.5-1.1,2.9-0.4c0.3,0.5,0.4,1.3,0.9,1.7c0.7,0.6,1.3-0.2,1.8-0.5c0.4-0.2,0.7,0,1.1,0c0.6,0.1,1.2,0.1,1.8-0.1
		c0.3-0.1,0.7-0.4,0.9-0.5c0.5,0,0.8,0.1,1.3,0.2c0.8,0.4,1.8,0.6,2.7,0.5c1.1-0.1,2.2,0,3.2-0.4c0.5-0.2,1.1-0.3,1.6-0.5
		c0.4-0.2,0.9-0.5,1.4-0.4c1,0,1.8,0.3,2.8-0.1c0.9-0.4,1.6-0.3,2.5-0.1c1,0.2,1.6,0.6,2.4,1.3c0.7,0.6,1.8,1.2,2.4,2
		c0.2,0.3,0.3,0.7,0.6,1c0.3,0.4,0.7,0.3,1.1,0.4c-0.7-0.1-1-0.2-1.3-0.9c-0.3-0.6-0.8-1.1-1.3-1.5c-0.6-0.5-1.1-1-1.7-1.5
		c-0.6-0.6-1.2-0.8-2-1c0.8-0.4,1.7-0.3,2.6-0.3c1-0.1,2-0.3,2.9-0.7c0.8-0.3,1.7-0.5,2.4-1c0.5-0.4,1-0.8,1.4-1.3
		c-0.1,0-0.7,0.6-0.8,0.7c-0.3,0.2-0.5,0.4-0.8,0.6c-0.4,0.3-0.9,0.4-1.4,0.5c-0.6,0.2-1.1,0.4-1.7,0.6c-1.2,0.3-2.4,0.3-3.6,0.3
		c-0.6,0-1.1,0.2-1.6,0.4c-0.5,0.2-1-0.1-1.5,0.1c-0.6,0.2-1,0.4-1.6,0.4c-0.6,0.1-1.1-0.2-1.7-0.2c-0.6,0-1.2,0.4-1.7,0.6
		c-0.6,0.2-1.3,0.4-1.9,0.5c-1.1,0.2-2.5,0.2-3.7,0c-0.5-0.1-1-0.3-1.5-0.6c-0.3-0.1-0.5-0.2-0.8-0.2c-0.4,0-0.3-0.2-0.3-0.6
		c0.6,0.2,1.1,0.6,1.7,0.6c0.6,0,1-0.7,1.3-1.1c0.3-0.5,0.7-1.1,0.9-1.6c0.1-0.2,0.2-1.1,0.4-1.1c0.5,0,1.8,0.1,1.9-0.6
		c0.1-0.8-1-1.8-1.4-2.4c0.8,0,1.9,0,1.9-1c0-0.3-0.1-0.7,0-1c0.1-0.5,0.7-0.4,1.1-0.5c0.5-0.1,0.7-0.3,1.1-0.2
		c0.3,0.1,0.7,0.2,1,0.1c0.7-0.2,0.6-1.2,0.9-1.7c0.5,0.7,0.5,1.8,1.3,2.2c0.9,0.5,1.7-1.2,2-1.8c0.2,0.8,0.2,2.7,1.4,2.4
		c0.4-0.1,0.9-0.6,1.2-0.4c0.5,0.2,0.9,0.6,1.5,0.7c0.5,0.1,0.9-0.5,1.2-0.8c0.4-0.4,0.9-0.5,1.3-0.9c0.4-0.4,0.7-0.5,1.2-0.4
		c0.5,0.1,1.1,0,1.7,0c1,0,1-1.1,1.2-1.9c0.1-0.3,1,0.1,1.2,0.1c0.5,0.1,1.2-0.4,1.6-0.6c0.4-0.2,0.6-0.5,0.8-0.9
		c0.2-0.5,0.5-0.5,1-0.6c1-0.1,2.3-0.2,3.2,0.3c0.4,0.2,0.4,0.7,0.7,1.1c0.3,0.4,0.7,0.5,1.1,0.6c1.2,0.1,2,1.3,3.2,1.6
		c0.4,0.1,0.7-0.1,1.1-0.1c0.4,0,0.6,0.4,0.8,0.7c0.7,0.9,2.2,0.6,3.2,0.6c0.5,0,1-0.2,1.5-0.2c0.5,0,0.9,0.4,1.4,0.4
		c1.1,0.1,1-1.7,2.1-1.1c0.4,0.8,1.6-0.1,2.1-0.2c1.2-0.3,2.2,1.1,3.4,0.8c0.3-0.1,0.9-0.5,1.2-0.2c0.4,0.4,0.5,0.9,0.9,1.2
		c0.8,0.2,1.4-1.3,2.1-0.4c0.2,0.3,0.3,0.7,0.6,0.8c0.5,0.3,1-0.1,1.5-0.1c0.2,0,1.6,0.3,1.6,0.3c0,0-1.1-0.2-1.2-0.3
		c-0.5-0.1-0.9,0-1.4,0.1c-0.7,0.1-0.8-0.6-1.2-1c-0.5-0.6-1-0.1-1.5,0.3c-0.7,0.5-1-0.5-1.3-0.9c-0.5-0.7-1.2-0.1-1.9-0.1
		c-0.4,0-0.7-0.2-1-0.4c-0.5-0.2-0.9-0.3-1.4-0.5c-0.8-0.2-1.4,0.6-2.1,0.4c0.4-0.7,0.9-0.8,1.7-0.8c1,0,1.8,0,2.7-0.5
		c0.7-0.4,1.4-0.9,2.1-1.2c0.4-0.2,0.8-0.3,1.3-0.4c0.5-0.1,0.9-0.4,1.4-0.6c0.7-0.3,1.3,0.2,1.9-0.1c0.7-0.4,0.9-0.8,1.7-0.6
		c0.8,0.2,1.3-0.4,2-0.8c0.1-0.1,1-0.6,1-0.7c0,0-2.2,1.5-2.4,1.5c-0.3,0.1-0.6-0.1-0.9-0.2c-0.4-0.1-0.7,0.1-1.1,0.4
		c-0.8,0.7-1.6,0-2.5,0.4c-0.8,0.3-1.6,0.5-2.4,0.8c-0.9,0.4-1.6,0.9-2.5,1.3c-0.9,0.4-1.7,0.4-2.7,0.3c-0.8,0-1.6,0.2-2,1
		c-1.2-0.9-1.4,1.5-2.4,1c-0.6-0.3-1-0.4-1.7-0.3c-0.8,0.1-1.5,0.1-2.3,0.1c-0.4,0-1,0.1-1.2-0.3c-0.3-0.4-0.6-1.1-1.3-1.1
		c-0.6,0-1,0.2-1.6-0.1c-0.6-0.3-1-0.8-1.5-1.1c-0.5-0.3-1.1-0.2-1.7-0.5c-0.3-0.2-0.4-0.9-0.7-1.2c-0.9-0.9-2.2-0.9-3.3-0.8
		c-1.2,0-2,0.1-2.6,1.2c-0.2,0.4-0.1,0.3-0.5,0.5c-0.1,0-1,0.3-0.9,0.5c-0.1-0.2-0.8-0.3-1.1-0.3c0.2-0.5,0.4-1,0.7-1.4
		c0.3-0.5,1.1,0,1.6,0c0.7,0,0.8-0.7,1-1.2c0.2-0.7,0.8-0.1,1.1,0.2c0.8,0.6,1.5,0.9,1.5-0.3c0-0.6-0.3-1.6-0.1-2.1
		c0.4,0,1.1,1.1,1.3,1.4c0.2,0.2,0.5,0.6,0.8,0.5c0.2,0,0.3-0.3,0.4-0.4c0.1-0.3,0.3-0.2,0.6-0.2c0.5,0,0.8,0.2,1.3,0.4
		c0.5,0.2,1,0,1.5-0.1c0.5-0.1,0.9,0.2,1.3,0.4c0.6,0.2,1.3,0.3,1.9,0.2c1.1-0.1,2.3-0.5,3.2-1.2c0.5-0.3,0.8-0.6,1.4-0.4
		c0.6,0.2,0.9,0.3,1.5,0.1c0.5-0.1,0.8,0.1,1.1,0.4c0.4,0.4,0.8,0.5,1.3,0.5c0.4,0,0.7,0.1,1,0.3c0.2,0.2,0.7,0.6,1,0.3
		c-0.4,0.3-1.2-0.6-1.7-0.7c-0.8-0.1-1.2-0.1-1.7-0.7c-0.6-0.7-1.2-0.1-1.9-0.3c-0.9-0.2-1.2-0.5-2.1,0.1c-1.4,1-3.4,1.6-5,0.9
		c-0.3-0.2-0.6-0.3-1-0.4c-0.5-0.1-0.9,0.2-1.4,0.2c-0.4,0-0.8-0.4-1.2-0.5c-0.3-0.1-0.7-0.2-1.1-0.2c0.2-0.8,0.8-0.4,1.4-0.4
		c0.7,0,0.8-0.8,0.9-1.3c0.2-1,0.4-0.7,1.2-0.5c0.8,0.2,0.9,0.4,1.4,1c0.2,0.3,0.8,1,1.2,0.7c0.1-0.3,0.3-2.4,0.6-2.3
		c0.4,0.1,0.9,0.6,1.2,0.9c0.6,0.5,1.1,0.3,1.8,0.1c0.9-0.2,0.7-1.1,1.3-1.5c0.7-0.5,1.5-0.3,1.8-1.3c0.4-1.5,1.9,1.3,2.5,0.4
		c-0.1-0.9-0.6-1.7-0.8-2.5c-0.2-0.7,0.6-0.2,0.9,0c0.4,0.2,0.7,0.5,1.1,0.7c0.7,0.3,0.9-1.2,1.2-1.6c-0.4,0.6-0.4,2.1-1.4,1.5
		c-0.5-0.3-1-0.9-1.6-1c-0.5-0.1,0.5,2.3,0.5,2.7c0.2,0.9-1.5-0.5-1.8-0.6c-0.4-0.2-0.6,0.1-0.7,0.5c-0.2,0.6-0.4,0.7-1,0.9
		c-0.5,0.2-1,0.4-1.3,0.9c-0.3,0.7-0.6,0.8-1.3,0.9c-1.1,0.1-1.3-0.5-2-1.1c-1-0.8-1,1.8-1.2,2.3c0-0.1-1-1.1-1.1-1.2
		c-0.2-0.2-0.3-0.5-0.6-0.5c-0.5-0.1-1-0.4-1.5-0.4c-0.6-0.1-0.7,0.8-0.7,1.2c-0.1,0.7-0.3,0.9-1,0.7c0.3-0.5,0.5-1.1,0.7-1.7
		c0.2-0.7,0.2-1.5,0.7-2.1c0.5-0.5,1.1-1,1.7-1.3c0.8-0.4,1.6-0.1,2.4-0.3c1.1-0.2,1.7-1.8,2.1-2.7c0.3-0.9,0.8-1.8,1-2.7
		C134.8,1.8,134.1,2.9,133.6,3.9C133.1,5,133.8,3.6,133.6,3.9z"/>
	
		<radialGradient id="SVGID_3_" cx="255.2762" cy="-203.488" r="132.1908" gradientTransform="matrix(-0.1327 -0.9912 0.9912 -0.1327 280.0952 248.7529)" gradientUnits="userSpaceOnUse">
		<stop  offset="0" style="stop-color:#43494A"/>
		<stop  offset="0.2261" style="stop-color:#4F6166"/>
		<stop  offset="1" style="stop-color:#6DCFF6"/>
	</radialGradient>
	<path fill="url(#SVGID_3_)" d="M96.4,4.2C96.3,4.2,96.3,4.2,96.4,4.2L96.4,4.2z M94.1,7.9c-0.7,0.7-1.1,1-0.9,2c0.1,0.6,1,2-0.1,2
		c-0.8,0-0.8,0.4-1.3,0.9c-0.6,0.6-1.2-0.4-1.9-0.2c-0.7,0.3-1,0.8-1.9,0.8c-1,0-1.1,0.5-1.5,1.2c-0.9,1.5-2.7,1.4-4.2,1.9
		c-0.5,0.1-0.8,0.5-1.3,0.6c-0.4,0.1-0.8,0.1-1.2,0.2c-0.9,0.3-0.8,1.3-1.9,1.1c-0.9-0.1-1.2,0.2-1.4,1c-0.2,1-1.1,0.6-1.7,1.2
		c-0.7,0.8-0.6,1.9-1.1,2.7c-0.3,0.4-0.6,0.7-0.8,1.1c-0.2,0.5-0.4,1-0.7,1.5c-0.5,0.8-0.7,1.4-0.2,2.3c0.1,0.1,0,1.2-0.1,1.3
		c-0.4-0.3-1.4,0.6-0.5,1c1,0.5,1.6-0.7,1.6-1.5c0-0.5,0.1-1-0.1-1.5c-0.2-0.5-0.3-0.6,0.1-1c0.3-0.4,0.5-0.9,0.6-1.4
		c0.2-0.6,0.5-0.9,0.8-1.4c0.5-0.8,0.4-1.9,1.1-2.6c0.2-0.3,0.6-0.4,0.9-0.5c0.5-0.2,0.7-0.7,0.8-1.2c0.2-0.9,1.3-0.1,1.9-0.6
		c0.3-0.3,0.4-0.7,0.7-1c0.3-0.3,1.1-0.2,1.5-0.4c0.5-0.2,0.9-0.5,1.3-0.7c0.5-0.2,1.1-0.2,1.6-0.4c0.9-0.4,2.3-0.9,2.7-1.9
		c0.2-0.4,0.2-0.9,0.8-0.9c0.5,0,0.9,0.1,1.3-0.2c0.4-0.2,0.7-0.8,1.2-0.7c0.5,0,0.9,0.6,1.5,0.3c0.4-0.2,0.5-0.8,0.9-1
		c0.3-0.1,0.7-0.1,1-0.1c0.4,0,0.8,0.1,1.1,0.1c0.6,0,1.2,0.3,1.8,0.3c0.5-0.1,1.1-0.3,1.6-0.6c0.4-0.3,0.5-0.7,0.9-1
		c0.3-0.3,0.8-0.4,1.2-0.6c0.6-0.2,0.8-0.8,1.2-1.1c0.6-0.5,1.3-0.1,2,0c0.8,0,1.2-0.2,1.9,0.3c1,0.8,2.4,0.8,3.6,0.5
		c-1,0.3-2.5,0.4-3.4-0.4c-0.5-0.5-1-0.7-1.7-0.6c-0.8,0.1-1.7-0.4-2.4,0c-0.6,0.4-0.8,1-1.6,1.2c-0.7,0.2-1,0.6-1.5,1.1
		c-1.2,1.4-2.9,0.4-4.5,0.5c0.2-0.3-0.1-0.7-0.3-1c-0.2-0.4-0.2-0.8-0.2-1.2c0-0.3-0.1-0.6,0-0.9c0.1-0.4,0.7-0.6,0.9-0.9
		C95,7,95.5,5.9,96,4.9c-0.3,0.5-0.6,0.9-0.9,1.4C94.8,6.8,94.6,7.5,94.1,7.9C93.8,8.2,94.6,7.5,94.1,7.9z M96.4,4.2
		c0,0-0.1,0.3-0.4,0.7C96.2,4.6,96.4,4.2,96.4,4.2z"/>
	
		<radialGradient id="SVGID_4_" cx="255.2764" cy="-203.4881" r="132.1906" gradientTransform="matrix(-0.1327 -0.9912 0.9912 -0.1327 280.0952 248.7529)" gradientUnits="userSpaceOnUse">
		<stop  offset="0" style="stop-color:#43494A"/>
		<stop  offset="0.2261" style="stop-color:#4F6166"/>
		<stop  offset="1" style="stop-color:#6DCFF6"/>
	</radialGradient>
	<path fill="url(#SVGID_4_)" d="M84.6,50c-0.2,0.3,0.2,0.9,0.2,1.2c0,0.2-0.2,0.5-0.2,0.7c0,0.4,0.1,0.8,0.3,1.2
		c0.3,0.7,0.6,1,1.3,1.4c0.3,0.2,0.1,0.6,0,0.8c-0.1,0.5,0.1,0.9,0.2,1.4c0.2,0.6,0.3,1,0.9,1.4c0.5,0.4,1.1,0.8,1.7,1.2
		c0.6,0.3,1.3,0.5,1.9,0.6c0.7,0.1,1.2-0.3,1.7-0.7c0.1,1.1,0.1,2.1,1.4,2.2c0.7,0,0.8,0.3,1.1,0.9c0.3,0.6,1,0.7,1.5,0.3
		c0.4-0.3,0.7-0.6,1.1-0.1c0.4,0.4,0.8,1,1.4,0.7c0.4-0.3,0.5-0.8,0.8-1.2c0.4-0.5,0.7,0.2,1.1,0.4c0.3,0.2,0.6,0.3,1,0.4
		c0.3,0.1,0.6,0.4,0.9,0.4c0.6,0.1,1,0.1,1.2,0.8c0.1,0.4,0.3,1.1-0.1,1.5c-0.5,0.6-0.6,1.3-0.6,2.1c0,0.7,0,1.4,0.3,2.1
		c0.2,0.5,0.7,1.5,1.3,1.6c0.6,0.1,1.1-0.4,1.6-0.3c0.6,0.2,0.6,1,1.4,1c-0.3,1,0.1,2.1,0,3.2c-0.1,1,0.4,2.5,1,3.4
		c0.6,0.8,1.8,1.5,2.8,1.5c0.5,0,1.1-0.3,1.5,0.2c0.5,0.4,1,0.7,1.5,1c-0.9,0.7-2.2,1.3-2.6,2.5c-0.2,0.6-0.1,1.2,0.3,1.7
		c0.2,0.3,0.6,0.6,0.9,0.9c0.3,0.3,0.3,0.6,0.4,0.9c0.1-1-1.1-1.4-1.4-2.3c-0.3-0.8,0.1-1.6,0.7-2.1c0.6-0.5,1.3-0.9,1.9-1.4
		c0.5-0.4-1.2-1.2-1.5-1.5c-0.3-0.3-0.7-0.5-1.1-0.4c-0.6,0.1-0.9,0-1.4-0.2c-1.1-0.5-1.8-1.1-2.1-2.3c-0.1-0.5-0.3-1-0.3-1.5
		c0-0.6,0.2-1.1,0.1-1.7c-0.1-0.5-0.2-1,0.1-1.5c0.1-0.2,0.2-0.4,0.2-0.6c0.3-0.2,0.6-0.2,1-0.2c1.2,0,2.2-0.2,3.3-0.5
		c1.1-0.4,1.7-0.2,2.6,0.5c0.4,0.3,0.7,0.2,1.2,0.1c0.5-0.2,0.9,0.2,1.4,0.4c0.9,0.4,1.2,1.8,1.3,2.6c0.2,1,1,1.1,1.7,1.7
		c0.3,0.3,0.9,0.7,0.9,1.1c0.1,0.5,0.4,1,0.6,1.3c0.3,0.4,0.6,0.7,1,0.9c0.4,0.1,0.7,0.5,0.9,0.8c0.4,0.5,0.8,1.3,0.9,2
		c0.1,0.7-0.9,0.8-1.4,1.1c-1,0.6,0.7,1.2,0.9,1.8c0.2,0.5,0.3,1.1,0.9,1.1c0.6,0,1.6-0.2,2.1-0.7c0.4-0.4,0.7-0.8,1.4-0.6
		c0.3,0.1,0.6,0.3,0.9,0.3c0.3,0,0.5-0.2,0.8-0.3c0,0.3,0,0.4,0.2,0.5c-0.2-0.2-0.1-0.3-0.2-0.6c-0.4,0-0.6,0.3-1,0.2
		c-0.3-0.1-0.6-0.2-0.9-0.3c-0.9-0.2-1.2,0.8-1.9,1c-0.6,0.2-1.6,0.6-2-0.2c-0.2-0.5-0.2-1-0.6-1.3c-0.2-0.1-1-0.6-0.7-0.9
		c0.3-0.3,0.9-0.4,1.3-0.6c1.2-0.6-0.7-3-1.1-3.6c0.6-0.1,1.2,0,1.8,0.1c0.7,0.1,1.2,0.5,1.9,0.4c0.7-0.1,1.3-0.3,1.9-0.6
		c0.5-0.3,1.2-1,1.8-0.9c0.6,0,1,0.3,1.7,0.1c0.7-0.2,1.2-0.4,1.8-0.8c0.8-0.6,1.4,0.8,2.3,0.4c0.4-0.2,0.8-0.6,1.2-0.4
		c0.5,0.2,0.8,0.6,1.3,0.7c0.5,0,1.1-0.1,1.6-0.2c0.5-0.4,1.1-0.8,1.7-1c1.3-0.5,2.8-0.5,4,0.1c1,0.5,2.1,0.6,3.1,1.2
		c-0.3-0.2-0.7-0.4-1-0.6c-0.4-0.2-1-0.1-1.4-0.3c-1.1-0.6-2.1-0.9-3.3-0.8c-0.6,0-1.1,0.2-1.6,0.4c-0.5,0.2-0.9,0.6-1.4,0.8
		c-0.4,0.2-1,0.2-1.4,0.2c-0.6,0-0.9-0.5-1.4-0.7c-0.9-0.3-1.4,0.7-2.3,0.2c-0.3-0.2-0.7-0.5-1.1-0.4c-0.5,0.1-0.9,0.6-1.4,0.7
		c-0.5,0.2-1,0.3-1.5,0.2c-0.5-0.1-0.8-0.2-1.3,0c-0.9,0.3-1.6,1.1-2.5,1.2c-1.1,0.1-2.1-0.2-3.1-0.4c-0.5-0.1-0.9-0.1-1.3,0
		c-0.6,0.1-0.6-0.4-0.9-0.8c-0.6-0.8-1.2-1.2-1.9-1.9c-0.3-0.3-0.7-0.6-1.1-0.8c-0.6-0.3-0.6-0.6-0.7-1.2c0-0.5-0.3-0.9-0.5-1.4
		c-0.1-0.4-0.2-0.9-0.7-1.1c-0.4-0.2-0.9-0.6-1.4-0.6c-0.5-0.1-1.1,0.4-1.6,0c-0.8-0.7-1.4-0.8-2.5-0.6c-0.5,0.1-1,0.4-1.5,0.5
		c-0.7,0-1.4,0.1-2.1,0.2c-0.9,0.1-1.7,0.8-2.4,0c-0.3-0.4-0.6-0.6-1.1-0.5c-0.4,0-1,0.4-1.4,0.2c-0.7-0.6-1-1.7-0.9-2.6
		c0-0.5,0.1-1,0.1-1.5c0.1-0.4,0.5-0.7,0.6-1.1c0.2-0.7,0-2-0.6-2.5c-0.3-0.2-0.8-0.3-1.2-0.3c-0.2,0-0.4-0.2-0.6-0.3
		c-0.3-0.1-0.6-0.2-0.9-0.3c-0.6-0.3-1.1-1.3-1.8-0.8c-0.3,0.2-0.9,1.1-0.9,1.5c-0.1-0.3-0.4-0.7-0.6-0.9c-0.2-0.1-0.8-0.3-0.5-0.6
		c0.2-0.1,0.6-0.1,0.8-0.1c0.5,0,1-0.3,1.6-0.3c1,0,1.6,0.8,2.5,1.2c0.4,0.1,0.8,0,1.2-0.1c0.6-0.1,1,0,1.5,0.1
		c0.5,0,0.9-0.1,1.4-0.1c0.5,0,0.9,0.4,1.4,0.6c1,0.3,2.1-0.1,3-0.5c0.8-0.4,1.8-0.7,2.7-0.6c0.5,0.1,1.1,0.2,1.6,0.3
		c-0.9-0.2-1.5-0.7-2.5-0.4c-0.5,0.1-1.1,0.2-1.6,0.4c-0.5,0.2-0.9,0.4-1.5,0.5c-0.4,0.1-0.9,0-1.4,0c-0.5,0-0.9-0.4-1.4-0.6
		c-0.4-0.1-0.9-0.1-1.3-0.1c-0.5,0-1-0.2-1.6-0.2c-0.4,0-0.8,0.2-1.2,0.2c-0.4,0-0.8-0.4-1.1-0.6c-1-0.7-1.8-0.8-3-0.5
		c-0.5,0.1-1,0-1.5,0.2c-0.7,0.2-0.5,0.9-1,1.2c-0.3,0.2-0.6,0.6-0.8,0.1c-0.2-0.4-0.3-0.9-0.8-1.1c-0.3-0.1-0.6-0.1-1-0.1
		c-0.6,0-0.5-0.4-0.5-0.8c0-1-0.5-1.8-1.6-1.1c-0.8,0.5-1.4,0.5-2.3,0c-0.4-0.2-0.6-0.4-0.9-0.7c-0.3-0.3-0.9-0.5-1.2-0.8
		c-0.2-0.3-0.2-0.7-0.3-1c-0.1-0.2-0.2-0.3-0.1-0.4c0.1-0.1,0.1-0.3,0.1-0.5c0.2-1-0.2-1.2-0.9-1.8c-0.2-0.2-0.4-0.6-0.6-0.9
		c-0.3-0.4-0.1-0.8-0.2-1.3C85.6,51,85.1,49.6,84.6,50C84.4,50.2,85,49.7,84.6,50z"/>
	
		<radialGradient id="SVGID_5_" cx="255.7403" cy="-203.5309" r="132.255" gradientTransform="matrix(-0.1327 -0.9912 0.9912 -0.1327 280.0952 248.7529)" gradientUnits="userSpaceOnUse">
		<stop  offset="0" style="stop-color:#43494A"/>
		<stop  offset="0.2261" style="stop-color:#4F6166"/>
		<stop  offset="1" style="stop-color:#6DCFF6"/>
	</radialGradient>
	<path fill="url(#SVGID_5_)" d="M33.1,10.4c-0.3,0-0.6-0.3-0.9-0.4c-0.5-0.2-2-1.4-2.5-1.6c-0.2-0.1-0.6,0.3-0.3,0.8
		c0.5,0.6,1.2,1.1,1.8,1.6c0.7,0.5,1.3,1.1,2.2,1c-0.2,0.6-0.6,1.3-0.3,1.9c0.5,0.9,1.5,0.4,2.1,0c-0.2,0.6-0.5,1.1-0.6,1.7
		c0,0.2-0.1,0.4,0,0.6c0,0.2,0.3,0.3,0.3,0.6c0.1,0.7-0.2,2.2,1,1.9c0.4-0.1,0.9-0.4,1.2-0.6c0.2-0.1,0.3-0.2,0.5-0.3
		c0.3-0.1,0.5,0.4,0.7,0.6c0.4,0.4,0.9,0.6,1.3,0.9c0.1,0.1,0.3,0.2,0.4,0.2c0.2,0.3,0.2,0.7,0.5,0.9c0.7,1,1.6,0.3,2.4-0.1
		c0.5-0.3,0.9,0,1.2,0.5c-0.1,0.3-0.1,0.6-0.2,0.9c-0.2,0.6-0.5,1.8,0.4,2c1.1,0.3,2.2-1,3-1.5c0,0.6-0.1,1.2,0.4,1.5
		c0.2,0.1,0.4,0.3,0.7,0.4c0.4,0.2,0.5,0.1,0.3,0.5c-0.2,0.6-0.5,1.1-0.1,1.7c0.4,0.7,1.1,1.3,1.7,1.9c0.3,0.3,0.5,0.5,1,0.6
		c0.1,0,0.9,0.1,0.9,0c0.3,0.7,0.8,1.3,1.3,1.9c0.5,0.5,1,0.6,1.7,0.4c0.3-0.1,0.5-0.1,0.8-0.2c0.1,0.3,0.3,0.6,0.5,0.8
		c-0.1,0-0.2,2.3,1.1,2c0.3-0.1,1.1-0.8,1.4-0.5c0.4,0.4,0.8,0.7,1.2,1.1c0.1,0.1,0.4,0.3,0.3,0.4c-0.1,0.3-0.2,0.7-0.3,1
		c-0.1,0.4-0.3,1.3,0.2,1.5c0.7,0.4,2.1-0.6,2.8-0.9c-0.2,0.3-0.4,0.7-0.4,1c0,0.2,0.2,0.5,0.1,0.6c-0.2,0.6,0.2,1.1,0.2,1.6
		c0,0.6-0.3,1.6,0.5,1.7c0.8,0.2,1.7-0.7,2.4-1c-0.2,0.7-1.1,1.8-0.5,2.5c0.6,0.8,2.3-0.7,2.8-1c-0.4,0.8-0.9,1.6-1.1,2.5
		c-0.1,0.8,0.5,1,1.2,1.1c0.7,0.1,1.5,0.3,2.2,0.4c0.9,0.3,1.7-1,2.4-1.5c0,0.6-0.3,1.3,0.1,1.9c0.6,0.8,1.5-0.1,2.1-0.4
		c0.2,0.9-0.1,2.7,1.4,2.1c0.4-0.1,0.7-0.6,1.1-0.6c0.2,0,1,0.1,1,0.4c-0.1,0.9-0.6,2.8,0,3.6c0.4,0.6,1.7-0.8,2.1-1
		c1-0.5,2.2-0.4,3.2,0c0.9,0.4,1.6,1.6,2.7,1.4c0.6-0.1,1.3,0,2,0c0.2,0,0.4,0.1,0.7,0c0.3-0.1,0.6-0.4,0.9-0.4
		c0.1,0.6-0.7,4.8,1,3.4c0.4-0.4,0.8-0.9,1.2-1.2c0.3-0.2,0.6-0.1,0.9-0.4c0.3-0.3,0.5-0.7,0.8-0.9c0,0.8-0.1,1.7-0.2,2.5
		c-0.1,0.6-0.4,1.9,0.2,2.4c0.5,0.4,1.1-0.7,1.3-1c0.4-0.7,0.7-1.4,1.2-2c0.2-0.2,0.4-0.2,0.6-0.2c0.5-0.1,0.8-0.3,1,0.2
		c0.3,0.7,0.5,1.2,1.3,1.2c0.7-0.1,1.5-0.2,2-0.7c0.5-0.5,0.9-0.4,1.6-0.4c0.4,0,0.8-0.1,1.2-0.2c0.6-0.1,0.7-0.1,1,0.4
		c0.3,0.6,1.4,3.2,2.1,1.4c0.3-0.8,0.2-1.8,0.6-2.6c0.4,0.5,0.6,1.2,1.2,1.6c0.4,0.3,0.7,0.4,1,0.8c0.3,0.4,0.8,0.5,1.2,0.8
		c0.6,0.5,2.1,0.9,2.7,0.3c0.3-0.3,1.3-2.2,1.6-2.2c0.4,0.1,0.7,0.7,1,0.9c0.5,0.3,1.3,0.2,1.7,0.7c0.3,0.4,0.2,0.9,0.4,1.4
		c0.4,0.7,1.1,0.2,1.5-0.1c0.4-0.3,0.8-0.6,1.3-0.2c0.6,0.5,0.7,0.9,0.7,1.6c-0.1,0.7,0.2,1.3,0.1,2c-0.1,0.4-0.5,1.8,0.1,2
		c0.5,0.2,0.8,1.1,0.9,1.6c0.1,0.6,0.2,0.7,0.8,1.1c1.2,0.8,2.7,0.8,4,1.5c0.6,0.3,1.2,0.7,1.8,0.9c0.4,0.2,0.8,0.4,1.2,0.6
		c0.5,0.2,0.7,0.2,0.4,0.8c-0.4,0.7-0.9,1.3-1.3,1.9c-0.3,0.5-0.9,1.1-0.8,1.7c0-0.8,1-1.8,1.4-2.4c0.3-0.4,0.7-0.8,0.9-1.3
		c0.4-0.7-0.7-0.9-1.1-1.2c-1.2-0.6-2.3-1.4-3.6-1.8c-0.8-0.3-2.9-0.6-3.1-1.6c-0.1-0.6-0.3-1.1-0.6-1.7c-0.2-0.4-0.1-0.3,0.2-0.5
		c0.3-0.2,0.5-0.4,0.7-0.6c0.3-0.3,0.5-0.6,0.8-0.8c0.3-0.2,1.2-0.2,1.5-0.2c0.9,0-0.6,2.5,0.6,2.5c0.5,0,0.9-0.5,1.2-0.8
		c0.2-0.2,0.8-0.6,1-0.9c-0.1,0.2,0.1,0.7,0.1,0.9c0,0.3,0,0.9,0.3,1.1c0.5,0.5,1.4,0.2,1.7,1.1c0.3,0.8,0.8,1.1,1.4,0.3
		c0.2-0.3,0.5-0.7,0.7-1c0.1-0.1,0.5-0.5,0.6-0.6c0.3,0.3,0.3,0.8,0.3,1.2c0.1,0.5,0.4,0.7,0.5,1.2c0.1,0.4,0,0.9,0.1,1.4
		c0.1,0.6,0.6,0.8,0.8,1.3c0.2,0.3,0.4,0.9,0.9,0.6c0.3-0.3,0.6-0.6,0.8-1c0.2-0.4,0.4-0.8,0.7-1.1c0.4-0.5,0.8,0.1,1.3,0.4
		c0.4,0.1,1.5-0.1,1.5,0.4c0.1,0.7-0.1,1.5,0.1,2.2c0.3,1,1,0,1.3-0.5c0.5-0.9,1-2,1.7-2.7c0,0.1,0.2,0.5,0.2,0.7
		c0,0.6,0,1.2,0.1,1.7c0.2,1,1.1,0.2,1.7,0.1c0.4-0.1,0.6,0.9,0.7,1.2c0.1,0.3,0.1,0.6,0.3,0.9c0.2,0.4,0.6,0.5,0.8,0.8
		c0.9,1,1.4,0.3,2-0.6c0.3-0.4,0.8-0.4,1.3-0.5c0.6-0.1,1.2-0.2,1.7-0.2c0.9,0,0.7,2,1.7,1.1c0.6-0.5,0.9-1.3,1.6-1.8
		c0.7-0.5,0.8,0.8,1.2,1.2c0.4,0.3,0.8,0.2,1.2,0.4c0.5,0.2-0.1,1.4-0.2,1.8c-0.2,0.6-0.9,1.8-0.5,2.4c0.5,0.2,0.9-0.2,1.4-0.2
		c0.6,0.1,0.9-0.2,1.3-0.6c0.6-0.6,1.2-1.3,2-1.8c0.4-0.3,0.3,0.3,0.2,0.6c-0.1,0.6-0.4,1.1-0.6,1.7c-0.4,1-0.3,1.5,0.7,2.1
		c0.5,0.3,0.9,0.1,1.4,0.1c0.7-0.1,0.5,0.8,0.5,1.2c-0.3,2.1,2-0.3,2.5-0.8c-0.5,0.4-1.6,1.8-2.3,1.7c-0.4-0.1-0.1-1.3-0.1-1.6
		c0-1-1.2-0.3-1.8-0.5c-0.7-0.2-1.1-0.8-0.9-1.5c0.2-0.7,0.5-1.3,0.8-2c0.1-0.3,0.2-0.6,0.1-0.8c-0.1-0.6-0.6-0.1-1,0.1
		c-0.8,0.6-1.4,1.7-2.3,2.1c-0.2,0.1-0.4,0-0.6,0c-0.2,0-0.5,0.1-0.7,0.2c-0.6,0.1-0.6-0.4-0.4-0.8c0.2-0.9,0.7-1.6,0.8-2.5
		c0.1-0.7,0.1-0.9-0.7-1c-0.6-0.1-0.9-0.3-1.1-0.8c-0.9-2.6-2.4,2.1-3.2,1.2c-0.3-0.3-0.3-0.8-0.5-1.1c-0.3-0.4-0.8-0.2-1.2-0.1
		c-1,0.1-2,0-2.6,0.9c-0.5,0.7-0.8,1.2-1.5,0.4c-0.3-0.3-0.8-0.5-0.9-0.8c-0.2-0.4-0.2-0.8-0.3-1.2c-0.1-0.3-0.1-0.7-0.4-0.9
		c-0.4-0.3-1,0.2-1.3,0.4c-0.7,0.3-0.5-1-0.5-1.4c0.1-4.4-2.9,2.3-3.1,2c-0.2-0.2-0.1-1.1-0.1-1.4c0-0.4,0.1-1.2-0.4-1.4
		c-0.4-0.2-0.8,0-1.2-0.1c-0.4-0.1-0.7-0.4-1-0.6c-0.8-0.5-1.3,0.9-1.6,1.4c-0.2,0.4-0.4,0.7-0.8,0.9c-0.2,0-0.5-0.8-0.6-0.9
		c-0.4-0.4-0.3-0.4-0.1-0.8c0.2-0.3,0.4-0.7,0.6-1c0.4-0.7,1.2-0.9,1.7-1.6c0.5-0.8,1.7-1.2,2.6-1.5c0.5-0.2,1-0.3,1.5-0.6
		c0.4-0.2,0.4-0.8,0.8-1.1c0.3-0.3,0.9,0,1.3,0.2c0.5,0.2,0.8,0,1.4-0.2c0.6-0.1,1.1,0.2,1.6,0.4c0.5,0.2,1.1,0.3,1.6,0.5
		c1,0.4,2.1,0.9,3.1,0.2c0.4-0.3,0.6-0.7,1.1-0.8c0.4,0,0.9,0,1.2-0.3c0.2-0.2,0.2-0.6,0.1-0.9c-0.1-0.6,0-1.2,0-1.9
		c0-0.5,0-1,0.1-1.4c0-0.3,1-0.6,1.3-0.7c0.5-0.1,1,0.1,1.5,0.2c0.5,0.1,0.8,0.5,1.2,0.7c0.9,0.5,2.4,0.7,3.4,0.3
		c-0.7,0.2-1.5,0.2-2.2,0c-0.8-0.2-1.2-0.6-1.9-1c-0.6-0.3-1.4-0.5-2-0.4c-0.4,0.1-1.3,0.3-1.4,0.8c-0.2,0.7-0.1,1.5-0.1,2.2
		c0,0.5,0.3,1.9-0.3,2c-0.7,0.2-1.2,0-1.7,0.5c-0.5,0.5-1.2,0.6-1.9,0.5c-0.7-0.1-1.4-0.6-2.2-0.8c-0.8-0.2-1.5-0.8-2.3-0.7
		c-0.3,0-0.6,0.2-1,0.2c-0.4,0-0.7-0.2-1.1-0.3c-0.8-0.3-1,0.3-1.5,0.9c-0.4,0.5-1.2,0.6-1.7,0.8c-0.7,0.3-1.7,0.6-2.3,1
		c-0.5,0.4-0.7,1.1-1.3,1.4c-0.7,0.3-1.1,0.9-1.4,1.6c0-1-0.5-1.7-0.7-2.7c-0.3-1.4-1.3-0.4-1.7,0.3c-0.4,0.6-0.7,1.5-1.1,0.5
		c-0.2-0.4-0.4-0.8-0.8-0.9c-0.2-0.1-0.8-0.4-1-0.3c0.1-0.4,0-1.3-0.1-1.7c-0.1-0.7-0.6-0.6-1-0.3c-0.2,0.2-1.4,1.6-1.6,1.5
		c0.1-0.1,0.1-1.4,0.1-1.6c0.1-0.9-0.3-1.1-1.1-1c-0.7,0.1-1.2,0-1.8,0.5c-0.5,0.4-1,0.9-1.5,1.3c-0.2-0.5,0-1,0.1-1.6
		c0-0.6-0.3-1.1-0.2-1.6c0.1-1.1,0-1.8-1-2.4c-0.9-0.5-1.5,0.5-2.3,0.7c0,0-0.2-0.5-0.3-0.6c-0.1-0.5-0.2-1-0.7-1.3
		c-0.4-0.2-0.8-0.2-1.1-0.3c-0.4-0.2-0.6-0.6-0.9-0.9c-1-0.9-1.8,0.9-2.3,1.5c-0.4,0.5-0.6,0.6-1.3,0.5c-0.5,0-0.8-0.2-1.2-0.5
		c-0.3-0.3-0.8-0.4-1.1-0.7c-0.1-0.1-0.8-1.1-1-0.6c0.1-0.4-0.7-0.9-0.6-1.4c0.1-0.4-0.1-0.8,0-1.2c0-0.1,0.6-0.3,0.6-0.3
		c1.7-0.7,3.2-1.8,4.1-3.4c0.5-0.7,0.9-1.1,1.8-1.1c0.4,0,0.6,0.4,1,0.5c0.4,0.2,0.7,0.3,1,0.7c0.8,0.8,1.2-0.3,2-0.3
		c0.3-0.1,0.5,0.5,0.7,0.7c0.3,0.4,0.8,0.4,1.3,0.5c0.9,0.2,1.5,1.1,2.5,0.8c0.4-0.1,0.8-0.3,1.2-0.1c0.4,0.1,0.8,0.5,1.2,0.2
		c0.7-0.4,0.5-1.7,0.5-2.4c0-0.6,0-1.2-0.2-1.8c-0.1-0.4,0.3-0.6,0.6-0.8c0.7-0.4,1.4-1.5,1.4-2.2c0-1,1.6-1.2,2.3-1.4
		c1.1-0.4,2.3-0.6,3.4-0.9c0.5-0.1,1-0.4,1.5-0.4c0.1,0,1.3,0.4,1.3,0.3c-0.8,0-1.2-0.5-2.1-0.3c-1.1,0.3-2.1,0.6-3.2,0.9
		c-1,0.3-2,0.5-3,0.9c-0.4,0.2-0.5,0.5-0.6,0.9c-0.1,0.5-0.4,0.9-0.7,1.3c-0.4,0.6-1.3,0.8-1.3,1.6c0,0.8,0.2,1.6,0.1,2.4
		c0,0.5-0.1,1.7-0.8,1.4c-0.3-0.1-0.6-0.3-0.9-0.3c-0.5-0.1-1,0.3-1.5,0.2c-0.3,0-0.6-0.3-0.9-0.5c-0.3-0.3-0.7-0.3-1.1-0.4
		c-0.3-0.1-0.6-0.1-0.9-0.3c-0.3-0.3-0.5-0.8-1.1-0.9c-0.9-0.1-1.1,1-1.9,0.2c-0.5-0.5-1.6-1.2-2.4-1.2c-0.8,0.1-1.5,0.4-1.8,1.1
		c-0.4,0.8-1.3,1.5-2,2.2c-0.6,0.5-1.4,1-2.2,1.2c-1.1,0.3-0.9,0.9-1,1.8c-1-0.6-1.4,2.4-1.6,2.9c-0.3-0.6-0.6-1.2-0.9-1.8
		c-0.4-0.7-0.8-0.8-1.5-0.6c-0.7,0.2-1.3,0.1-2,0.1c-0.8,0-1.1,0.9-1.8,1.1c-0.3,0.1-0.7,0.1-1,0.2c-0.2-0.2-0.3-0.5-0.4-0.8
		c-0.2-0.5-0.5-1-1.2-0.8c-0.7,0.2-1.4,0.2-1.8,0.9c-0.5,0.7-0.8,1.4-1.2,2.1c0-1.3,0.7-3.3,0.1-4.5c-0.4-0.8-1.5,0.6-1.8,0.8
		c-0.4,0.4-0.6,0.3-1,0.5c-0.5,0.3-0.7,0.8-1.1,1.1c0-0.6,0.7-3.8-0.7-3.5c-0.3,0.1-0.5,0.2-0.8,0.4c-0.4,0.2-0.8,0-1.2,0
		c-0.6,0-1.6,0-2.2-0.3c-1.3-0.7-2.2-1.9-3.8-1.7c-1.1,0.1-1.9,0.5-2.7,1.1c0.1-0.6,0.1-1.1,0.2-1.7c0.1-0.5,0.2-1.3-0.2-1.7
		c-0.4-0.3-0.9-0.3-1.3-0.4c-0.7-0.1-1.1,0.2-1.7,0.5c0-0.6,0-1.3-0.3-1.8c-0.5-1-1.5-0.1-2,0.2c0-0.7,0.3-2.9-1-2.2
		c-0.8,0.4-1.3,1.2-2,1.6c-0.4-0.1-0.8,0-1.1-0.1c-0.5-0.1-1-0.2-1.4-0.4c0.3-0.7,0.7-1.3,1-2c0.1-0.2,0.1-0.3,0.2-0.5
		c0.1-0.3,0.3-0.2,0.6-0.3c0.6-0.1,0.8,0,1.3,0.3c0.3,0.2,0.7,0.5,1.1,0.5c0.4,0.1,1-0.3,1.4-0.1c0.7,0.4,1.3,1.2,2.1,0.3
		c0.2-0.3,0.3-0.7,0.6-0.9c0.3-0.2,0.7-0.3,1-0.5c0.6-0.4,0.9-1.4,1.6-1.5c0.7-0.1,1.5,0.1,1.9,0.8c0.2,0.3,0.3,0.7,0.6,1
		c0.3,0.4,0.7,0.4,1.2,0.4c0.7,0.1,1.4,0.7,2.1,1.1c0.8,0.4,1.6,1.1,2.5,1.3c0.4,0.1,0.9,0.2,1.3,0c0.3-0.2,0.5-0.6,0.8-0.8
		c0.2-0.3,0.7-0.2,1-0.2c0.4,0,0.8-0.3,1.3-0.3c0.9-0.1,1.1-1,1.2-1.8c0-0.4-0.5-1.5,0.1-1.5c0.3,0,0.7,0.2,1,0.2
		c0.5,0,1.1-0.4,1.6-0.6c0.7-0.3,1.1-0.6,1.5-1.2c-0.1,0-0.3,0.4-0.4,0.4c-0.3,0.3-0.7,0.5-1.1,0.7c-0.4,0.1-0.8,0.4-1.2,0.5
		c-0.5,0.1-0.8,0-1.2-0.1c-1.1-0.2-0.4,0.9-0.5,1.5c-0.1,0.8-0.4,1.6-1.2,1.7c-0.5,0-0.8,0.2-1.2,0.3c-0.4,0.1-0.8,0-1.1,0.2
		c-0.3,0.2-0.5,0.6-0.8,0.8c-0.4,0.2-1.1-0.1-1.4-0.2c-0.4-0.2-0.7-0.5-1.1-0.8c-0.4-0.3-0.8-0.5-1.2-0.7c-0.4-0.2-0.7-0.6-1.1-0.8
		c-0.4-0.2-1.1,0-1.4-0.4c-0.2-0.3-0.3-0.7-0.5-1c-0.2-0.3-0.5-0.6-0.8-0.8c-0.8-0.5-1.7-0.5-2.4,0c-0.7,0.5-1,1.3-1.9,1.5
		c-0.4,0.1-0.7,0.3-0.9,0.6c-0.2,0.2-0.4,0.8-0.6,0.6c-0.6-0.4-0.8-0.8-1.6-0.8c-0.4,0-0.8,0.2-1.1,0c-0.4-0.3-0.8-0.7-1.3-0.8
		c-0.4-0.1-0.8,0-1.3,0.1c-0.3,0-0.5-0.2-0.9-0.1c-0.9,0.1-1.6,0.8-2.3,1.2c0.2-0.4,1.4-2.6,0.3-2.7c-0.9-0.1-1.9,0.6-2.7,1
		c0.1-0.7-0.1-1.4-0.2-2.1c0-0.4-0.1-0.5,0.1-0.9c0.2-0.3,0.3-0.6,0.4-1c0.2-0.7,0-1.4-0.9-1.2c-0.8,0.1-1.5,0.7-2.2,1.1
		c0.1-0.5,0.4-1.1,0.2-1.7c-0.2-0.5-0.7-0.9-1.1-1.2c-0.4-0.3-0.7-0.8-1.2-1c-0.6-0.3-1.1,0.1-1.6,0.3c0-0.8-0.3-1.9-1-2.4
		c-0.6-0.5-1.4-0.1-2,0c-0.8,0.2-1.3-1.5-1.7-2c-0.2-0.2-1.7-0.8-1.8-0.3c0-0.9-1.7-1.3-1.5-2.2c0.2-1,0.8-2.1-0.6-2.5
		c-0.6-0.2-0.6-0.1-0.6-0.8c0-0.4,0-0.9-0.3-1.2c-0.8-0.9-2.4,0.6-3.1,1c0.1-0.5,0.4-1.2,0.1-1.8c-0.3-0.4-0.7-0.8-1.1-1.1
		c-0.5-0.4-1-0.4-1.5-0.2c-0.2,0.1-0.4,0.2-0.7,0.4c-0.4,0.2-0.5,0.3-0.6-0.1c-0.4-1.1-1.7-1.2-2.4-2.1c-0.9-1.2-1.7-0.6-2.8,0
		c0-0.3,0-0.6-0.1-0.9c-0.1-0.4,0-0.6,0.1-1c0.2-0.6,0.5-1.2,0.7-1.8c0.3-1.6-1.2-1.3-2.1-0.8c0.2-0.6,0.4-1.3-0.1-1.8
		C34.3,10,33.7,10.4,33.1,10.4C33.1,10.4,33.7,10.4,33.1,10.4z"/>
</g>
<g>
	<path fill="#454A4C" d="M56.6,34.5c-4.2,9.4-10.1,16.4-17.9,21c0.4,0.9,0.9,2.5,1.4,4.7c0.5,2.2,0.9,4.2,1.4,5.9
		c0.4,1.7,1.1,3.3,2.1,4.6c1,1.4,2.1,2.1,3.3,2.1c1.2,0,2.2-0.4,3.1-1.2c0.4,0.8,0.6,1.6,0.6,2.3c0,1.7-0.7,3.1-2.2,4.3
		S45,80,43.1,80c-2,0-3.6-0.5-4.9-1.4c-1.3-1-2.3-2.3-2.9-4.1c-0.6-1.8-1-3.5-1.3-5.1c-0.3-1.6-0.5-3.6-0.7-5.9
		c-0.2-2.3-0.4-4-0.5-5c-3.9,1.5-8.1,2.3-12.5,2.3C7.3,60.6,0.9,55,0.9,43.6c0-5.1,1.1-10.2,3.2-15.2c2.2-5,5-9.3,8.5-13
		c3.5-3.7,7.7-6.7,12.5-9C30,4.1,35,3,40,3c6.6,0,11.6,1.6,14.9,4.9c3.3,3.2,4.9,7.3,4.9,12.2C59.8,24.9,58.7,29.7,56.6,34.5z
		 M53.3,19.3c0-8.5-3.6-12.7-10.9-12.7c-4.1,0-8.1,1.2-12.1,3.5c-4,2.3-7.5,5.3-10.4,9c-2.9,3.6-5.3,7.7-7.1,12.2
		c-1.8,4.5-2.7,8.8-2.7,12.8c0,4.1,0.9,7.3,2.7,9.7s4.5,3.6,8.1,3.6c3.6,0,7.2-0.9,10.8-2.6c-0.5-1.4-1.2-2.5-2.2-3.2
		c-0.9-0.7-1.9-1.1-2.9-1.1l-2.1,0.3c-0.5,0-0.7-0.2-0.7-0.5c0-0.7,0.5-1.2,1.5-1.5c1-0.3,2.1-0.5,3.2-0.5c2.9,0,5.5,1.2,7.6,3.7
		c5-3.8,9.1-8.8,12.3-14.9C51.8,30.8,53.3,24.9,53.3,19.3z"/>
	<path fill="#454A4C" d="M86.3,26.7l3.7,0.1c0.8,0,1.3,0,1.5-0.1c-1.5,1-3.5,4.4-6.3,10.3c-2.7,5.9-4.1,10.1-4.1,12.7
		c0,1.6,0.5,2.3,1.6,2.3c0.7,0,1.6-0.4,2.8-1.3c1.2-0.9,2.2-1.9,3-2.9c0.8-1.1,1.7-2.4,2.7-3.9c1-1.6,1.8-2.9,2.5-4.1
		c0.7-1.1,1.1-1.7,1.2-1.7c0.3,0,0.5,0.5,0.5,1.5c0,1-0.3,1.9-0.9,2.8C88,53.2,82.7,58.6,78.4,58.6c-2.9,0-4.4-2.2-4.4-6.5
		c0-1.3,0.1-2.6,0.3-3.9c-4.9,6.9-9.5,10.4-13.9,10.4c-1.3,0-2.4-0.5-3.2-1.6c-0.8-1.1-1.2-2.7-1.2-4.8c0-2.1,0.8-5.6,2.3-10.6
		c1.5-4.9,3.4-8.9,5.5-12.1c0.5-0.8,1.1-1.3,1.7-1.4c0.6-0.2,1.7-0.3,3.4-0.3h3.7c-1.3,1.8-2.7,4.2-4.2,7.2
		c-3.4,7.1-5.1,12.3-5.1,15.7c0,2,0.7,3,2.1,3c1.4,0,3.1-1.4,5.1-4.1c2-2.8,4.1-6.3,6.4-10.7c2.3-4.4,3.6-6.9,3.9-7.4
		C82.7,28.3,84.5,26.7,86.3,26.7z"/>
	<path fill="#454A4C" d="M103.4,27l3.9,0.1h0.8c-0.8,0.6-1.9,2.3-3.3,5.1c-1.4,2.8-2.4,4.8-3.1,6.2c-0.7,1.4-1.4,3.3-2.3,5.7
		c-0.9,2.4-1.3,4.3-1.3,5.8c0,1.5,0.5,2.3,1.5,2.3c0.7,0,1.6-0.5,2.8-1.4c1.2-0.9,2.2-1.9,3-2.9c0.8-1,1.6-2.3,2.6-3.9
		c1-1.6,1.8-2.9,2.5-4.1s1.1-1.7,1.2-1.7c0.3,0,0.5,0.5,0.5,1.4c0,1-0.3,1.9-0.8,2.8c-1.9,3.2-3.7,5.9-5.3,8.1
		c-1.6,2.2-3.4,4-5.4,5.7c-2,1.6-3.9,2.4-5.5,2.4c-2.9,0-4.4-2-4.4-6.1c0-6.3,2.2-13.2,6.5-20.9C99.1,28.5,101.1,27,103.4,27z
		 M114,16.7h-0.3c-1,0-2,0.4-3,1.3c-1,0.9-1.6,1.8-2.1,2.7c-1.4-0.5-2-1.5-2-2.8c0-1.4,0.6-2.7,1.9-4.1c1.2-1.4,2.4-2.1,3.6-2.1
		c1.1,0,2,0.3,2.6,0.8c0.6,0.5,0.9,1.2,0.9,2S115,16.1,114,16.7z"/>
	<path fill="#454A4C" d="M139.6,38.2c0.3,0,0.5,0.5,0.5,1.5c0,1-0.4,2.2-1.3,3.7c-0.9,1.5-1.5,2.6-2,3.3c-0.5,0.8-1.3,2-2.5,3.6
		c-1.2,1.7-2.2,2.9-3.1,3.6c-0.9,0.7-2,1.6-3.4,2.6c-2.3,1.7-5.3,2.5-8.9,2.5c-3.7,0-6.3-0.9-7.9-2.8c-1.6-1.8-2.5-4.2-2.5-7.2
		c0-5.5,1.9-10.5,5.8-15c3.9-4.5,8.4-6.8,13.7-6.8c2.3,0,4.2,0.6,5.6,1.8c1.4,1.2,2.1,2.7,2.1,4.4c0,1.7-0.5,3.2-1.4,4.4
		c-0.9,1.2-2,1.9-3.2,1.9c-2.3,0-3.5-1-3.5-2.9c0-0.6,0.6-1.2,1.9-1.8c0.5-0.2,1-0.6,1.4-1.2c0.4-0.6,0.6-1.3,0.6-2.3
		c0-1.4-0.7-2-2.2-2c-3.1,0-6.2,2.3-9.3,6.8c-3.1,4.5-4.6,8.9-4.6,13.1c0,4.2,1.8,6.4,5.5,6.4c5.1,0,10.2-4,15-11.9
		c1-1.6,1.8-2.9,2.5-4S139.5,38.2,139.6,38.2z"/>
	<path fill="#454A4C" d="M171.2,42.6c-1.8,3.1-3.7,5.8-5.5,8.3c-4,5.2-7.9,7.8-11.8,7.8c-2.1,0-3.7-1.1-4.8-3.2
		c-1.1-2.1-1.6-4.5-1.6-7.1c0-5.2,0.8-7.8,2.3-7.8c2.4,0,4.7-0.6,6.8-1.7c2.1-1.1,3.1-2.6,3.1-4.4c0-1.5-0.8-2.2-2.5-2.2
		c-3.6,0-7.6,3.9-11.9,11.7c-0.4,0.8-1.3,2.6-2.6,5.4c-1.3,2.8-2.5,5-3.5,6.4c-1,1.5-2,2.2-3,2.2h-4.8c1.6-3,4-9.1,7.1-18.3
		c3.1-9.2,5.5-15.3,7-18.4c0.1-0.1,0.4-0.8,1-2c0.6-1.2,1-2.1,1.2-2.6c0.2-0.5,0.7-1.4,1.4-2.7c0.7-1.3,1.2-2.3,1.6-2.9
		c0.4-0.6,1-1.5,1.7-2.7c0.7-1.2,1.4-2.1,1.9-2.7c0.6-0.6,1.2-1.4,2-2.2c0.8-0.9,1.5-1.5,2.2-1.9c1.8-1,3.4-1.6,4.8-1.6
		c2.9,0,4.3,1.3,4.3,3.9c0,3.6-2.2,8.5-6.6,14.5c-4.4,6-9.3,11.7-14.8,17l-1.4,3.9c2.5-3.2,5.3-6,8.5-8.5s6.1-3.6,8.7-3.6
		c1.5,0,2.7,0.4,3.5,1.1s1.3,1.7,1.3,3c0,2.9-1.3,5.2-3.8,6.9c-2.5,1.7-5.4,2.9-8.7,3.4c0.5,5.4,1.2,8.7,2.3,9.9
		c0.5,0.6,1.2,0.9,1.9,0.9s1.8-0.5,3.2-1.4c1.4-0.9,2.5-2,3.3-3.1c0.9-1.1,1.8-2.5,2.7-4s1.8-2.9,2.5-4.1s1.1-1.7,1.2-1.7
		c0.3,0,0.5,0.5,0.5,1.5S171.8,41.8,171.2,42.6z M163.6,2.3c-2.9,0-8,9.4-15.3,28.1c6.6-7.8,11.3-14.4,14-19.7
		c1.6-2.8,2.3-5.1,2.3-6.9C164.7,2.7,164.3,2.3,163.6,2.3z"/>
	<path fill="#454A4C" d="M200.9,42.3c-3.9,6.5-7.4,11-10.6,13.6c-3.2,2.5-7.3,3.8-12.3,3.8c-2.9,0-5.4-0.6-7.3-1.7
		c-2-1.1-3-2.8-3-4.9c0-1.2,0.4-2.4,1.1-3.4c0.7-1,1.7-1.6,3-1.6c1.3,0,2.1,0.5,2.5,1.4c-1,1-1.5,2.1-1.5,3.4c0,2.6,1.5,3.9,4.4,3.9
		c1.7,0,3.2-0.6,4.5-1.8c1.3-1.2,1.9-2.5,1.9-3.9c0-1.4-0.3-2.7-0.9-3.8c-0.6-1.1-1.4-2.1-2.3-2.9c-0.9-0.8-1.8-1.7-2.7-2.5
		c-2.1-2-3.2-4.4-3.2-7c0-2.6,1-4.8,3-6.6c2-1.8,4.7-2.7,8.2-2.7c2.2,0,4,0.4,5.5,1.2c1.5,0.8,2.3,2,2.3,3.6s-0.5,3.1-1.5,4.2
		c-1,1.2-2.3,1.8-4,1.8c-1.7,0-2.5-0.8-2.5-2.3c0-0.4,0.6-0.9,1.8-1.6c1.2-0.7,1.8-1.5,1.8-2.3s-0.3-1.4-1-1.8
		c-0.7-0.4-1.6-0.6-2.8-0.6c-1.2,0-2.4,0.4-3.5,1.2c-1.1,0.8-1.7,1.9-1.7,3.3c0,1.4,0.6,2.6,1.7,3.8c1.1,1.2,2.4,2.2,3.7,3
		c1.4,0.8,2.6,2,3.7,3.5c1.1,1.5,1.7,3,1.7,4.7c0,1.6-0.4,3.1-1.1,4.4c-0.8,1.3-1.7,2.3-2.7,3.1c2.9-1.2,6-4.4,9.3-9.4
		c0.3-0.4,0.9-1.3,1.6-2.6c1.8-3.3,2.8-4.9,3-4.9c0.3,0,0.5,0.5,0.5,1.4C201.6,40.5,201.4,41.4,200.9,42.3z"/>
	<path fill="#454A4C" d="M209.7,27l3.9,0.1h0.8c-0.8,0.6-1.9,2.3-3.3,5.1c-1.4,2.8-2.4,4.8-3.1,6.2c-0.7,1.4-1.4,3.3-2.3,5.7
		c-0.9,2.4-1.3,4.3-1.3,5.8c0,1.5,0.5,2.3,1.5,2.3c0.7,0,1.6-0.5,2.8-1.4c1.2-0.9,2.2-1.9,3-2.9c0.8-1,1.6-2.3,2.6-3.9
		c1-1.6,1.8-2.9,2.5-4.1c0.7-1.1,1.1-1.7,1.2-1.7c0.3,0,0.5,0.5,0.5,1.4c0,1-0.3,1.9-0.8,2.8c-1.9,3.2-3.7,5.9-5.3,8.1
		c-1.6,2.2-3.4,4-5.4,5.7c-2,1.6-3.9,2.4-5.5,2.4c-2.9,0-4.4-2-4.4-6.1c0-6.3,2.2-13.2,6.5-20.9C205.4,28.5,207.4,27,209.7,27z
		 M220.3,16.7h-0.3c-1,0-2,0.4-3,1.3c-1,0.9-1.6,1.8-2.1,2.7c-1.4-0.5-2-1.5-2-2.8c0-1.4,0.6-2.7,1.9-4.1c1.2-1.4,2.4-2.1,3.6-2.1
		c1.1,0,2,0.3,2.6,0.8c0.6,0.5,0.9,1.2,0.9,2S221.2,16.1,220.3,16.7z"/>
	<path fill="#454A4C" d="M244.4,10.6c-1.9,3.8-4.7,8.1-8.6,12.9c-3.8,4.8-7.3,8.7-10.4,11.6l-1.2,3.6c-0.6,1.8-1.2,4-1.8,6.6
		c-0.6,2.6-0.8,4.4-0.8,5.5c0,1.6,0.6,2.3,1.7,2.3c1.1,0,2.5-0.6,4.1-1.9c1.6-1.3,2.7-2.4,3.5-3.4c0.7-1,1.6-2.2,2.5-3.8
		c1-1.6,1.8-2.9,2.5-4.1s1.1-1.7,1.2-1.7c0.3,0,0.5,0.5,0.5,1.4c0,1-0.3,1.9-0.8,2.8c-2.9,4.8-5.2,8.2-6.9,10.2
		c-3.6,3.9-7.3,5.9-11.1,5.9c-2.9,0-4.4-2-4.4-5.9c0-3.9,1.7-10.7,5.2-20.4c0.3-0.8,0.9-2.6,1.8-5.2c0.9-2.6,1.7-4.7,2.4-6.2
		c0.7-1.5,1.6-3.4,2.7-5.9c1.1-2.4,2.2-4.4,3.3-5.8c1.1-1.5,2.2-2.9,3.5-4.4c2.5-3,5.3-4.5,8.3-4.5c3,0,4.4,1.4,4.4,4.1
		C246.2,6.3,245.6,8.4,244.4,10.6z M242.8,2.1h-0.5c-3.2,0-8.2,9.5-15.2,28.5c7.1-8.4,12-15.2,14.6-20.6c1.5-3.3,2.2-5.4,2.2-6.4
		C243.8,2.6,243.5,2.1,242.8,2.1z"/>
	<path fill="#454A4C" d="M268.2,42.7c-2.1,3.8-4.8,5.7-8,5.7c-2.7,0-4.6-1.5-5.7-4.4c-4.5,6.8-7.7,10.8-9.5,12.1
		c-2.5,1.7-5,2.6-7.5,2.6c-1.2,0-2.3-0.6-3.1-1.8c-0.8-1.2-1.2-2.9-1.2-5s0.6-5.3,1.9-9.5c2.5-8.3,5.5-13.1,8.8-14.5
		c1.6-0.7,3.8-1,6.5-1c0.2,0,0.3,0.1,0.3,0.3c0,0.2-0.2,0.5-0.5,0.8c-2,1.7-4.1,5.2-6.4,10.6c-2.3,5.4-3.5,9.3-3.5,11.5
		c0,2.3,0.9,3.4,2.6,3.4c1.5,0,3.1-1.4,5.1-4.3c1.9-2.9,3.5-6.1,4.8-9.5c-0.3-1.2-0.4-2.7-0.4-4.6c0-1.8,0.5-3.7,1.4-5.5
		c0.9-1.8,2.2-2.8,3.8-2.8s2.4,1.2,2.4,3.6c0,2.8-0.9,5.7-2.6,8.6c-0.5,0.8-0.8,1.4-0.9,1.7c0.1,1.6,0.5,2.9,1.2,3.7
		c0.8,0.9,1.7,1.3,2.9,1.3c1.9,0,3.6-1.2,5.2-3.5c0.6-0.9,1.2-1.8,1.7-2.5c0.5-0.8,0.8-1.1,0.8-1.1c0.2,0,0.3,0.5,0.3,1.6
		S268.5,42.1,268.2,42.7z"/>
	<path fill="#454A4C" d="M296.7,37.9c0.3,0,0.5,0.5,0.5,1.5s-0.4,2.2-1.2,3.6c-0.8,1.4-1.7,2.7-2.5,4c-0.8,1.2-1.9,2.7-3.2,4.4
		c-1.4,1.7-2.7,3-4,4c-3.3,2.4-6.6,3.6-9.9,3.6c-3.3,0-6-0.8-8-2.5c-2-1.7-3-4.3-3-7.8c0-5.3,1.9-10.2,5.8-14.7s8.4-6.8,13.6-6.8
		c2.3,0,4.2,0.6,5.6,1.8c1.4,1.2,2.1,2.7,2.1,4.4c0,2.9-1.4,5.2-4.1,7c-2.8,1.8-6,2.6-9.7,2.6c-2.2,0-3.8-0.3-4.8-0.9
		c-1,2.6-1.5,5-1.5,7c0,4.4,1.8,6.5,5.5,6.5c2.2,0,4.4-0.8,6.7-2.5c2.3-1.7,4.3-3.6,5.9-5.7c1.6-2.1,3.5-5.1,5.6-9.1
		C296.4,38.1,296.6,37.9,296.7,37.9z M288.4,31.7c0-1.5-0.7-2.3-2.2-2.3c-2,0-4.3,1.2-6.8,3.7s-3.7,4.5-3.7,6.1c0,1,1,1.6,3,1.6
		c2,0,4-1,6.2-2.9C287.1,36,288.2,34,288.4,31.7z"/>
	<path fill="#454A4C" d="M314.3,26.8l4,0.1h0.8c-0.8,0.6-1.9,2.3-3.3,5.1c-1.4,2.8-2.5,4.9-3.2,6.4c-0.7,1.4-1.5,3.4-2.3,5.8
		s-1.3,4.4-1.3,5.9c0,1.5,0.5,2.3,1.6,2.3c0.7-0.1,1.6-0.5,2.8-1.4c1.2-0.9,2.2-1.9,3-2.9c0.8-1,1.7-2.3,2.6-3.9
		c1-1.6,1.8-3,2.5-4.1s1.1-1.8,1.2-1.8c0.4,0,0.5,0.5,0.5,1.4c0,1-0.3,1.9-0.8,2.8c-2.2,3.7-4.1,6.5-5.5,8.5c-1.5,2-3.2,3.8-5.3,5.4
		c-2.1,1.6-3.9,2.5-5.6,2.5c-3,0-4.4-2.2-4.4-6.5c0-3,0.6-6.3,1.7-10.1c1.1-3.7,2.8-7.4,5.1-10.8c-1.8,1.5-3.6,2.2-5.5,2.2
		c-0.6,0-1.2-0.1-1.8-0.4c-3.7,7.3-5.7,10.9-6,10.9c-0.3,0-0.4-0.4-0.4-1.3c0-0.9,0.3-2.1,1-3.6c0.6-1.5,1.4-3,2.1-4.4
		s1.2-2.2,1.2-2.3c-1.9-0.9-2.8-2.4-2.8-4.5c0-1,0.3-2,1-2.8c0.6-0.8,1.5-1.2,2.7-1.2c1.1,0,2.1,0.4,2.8,1.1
		c-0.1,0.3-0.2,0.8-0.2,1.4c0,1.4,0.5,2.5,1.5,3.3c1,0.8,2.2,1.2,3.7,1.2c0.4,0,0.7,0,0.9-0.1C310.6,28.1,312.4,26.8,314.3,26.8z"/>
</g>
<g>
	<g>
		<path fill="#454A4C" d="M77.7,73.5v-1.6h5.8v1.6H77.7z"/>
		<path fill="#454A4C" d="M91.6,72.7c0-3.4,2.2-6.1,5.8-6.1s5.8,2.7,5.8,6.1c0,3.4-2.2,6.1-5.8,6.1S91.6,76.1,91.6,72.7z
			 M101.3,72.7c0-2.4-1.4-4.5-3.9-4.5s-3.9,2.1-3.9,4.5c0,2.4,1.4,4.5,3.9,4.5S101.3,75.1,101.3,72.7z"/>
		<path fill="#454A4C" d="M114,78.5v-7.6c0-2.1-1-2.7-2.6-2.7c-1.4,0-2.8,0.9-3.5,1.8v8.5h-1.8V66.9h1.8v1.7c0.8-1,2.4-2,4.2-2
			c2.4,0,3.7,1.2,3.7,3.8v8.2H114z"/>
		<path fill="#454A4C" d="M119.4,78.5V62.4h1.8v16.1H119.4z"/>
		<path fill="#454A4C" d="M124.5,81.5c0.3,0.1,0.7,0.2,1,0.2c0.8,0,1.3-0.3,1.7-1.2l0.8-1.8l-4.9-11.8h2l3.9,9.6l3.9-9.6h2l-5.8,14
			c-0.7,1.7-1.9,2.3-3.4,2.4c-0.4,0-1-0.1-1.3-0.2L124.5,81.5z"/>
		<path fill="#454A4C" d="M143.3,76.1v-7.6h-1.9v-1.6h1.9v-3.2h1.8v3.2h2.4v1.6h-2.4v7.3c0,0.9,0.4,1.5,1.2,1.5c0.5,0,1-0.2,1.2-0.5
			l0.5,1.4c-0.5,0.4-1.1,0.7-2.2,0.7C144.2,78.8,143.3,77.8,143.3,76.1z"/>
		<path fill="#454A4C" d="M157.9,78.5v-7.7c0-2.1-1.1-2.7-2.6-2.7c-1.4,0-2.8,0.9-3.5,1.8v8.5H150V62.4h1.8v6.1c0.8-1,2.4-2,4.2-2
			c2.4,0,3.7,1.2,3.7,3.7v8.2H157.9z"/>
		<path fill="#454A4C" d="M162.7,72.7c0-3.4,2.4-6.1,5.8-6.1c3.5,0,5.6,2.8,5.6,6.3v0.5h-9.5c0.1,2.2,1.7,4,4.2,4
			c1.3,0,2.7-0.5,3.6-1.5l0.9,1.2c-1.2,1.2-2.7,1.8-4.6,1.8C165.2,78.8,162.7,76.3,162.7,72.7z M168.4,68.1c-2.5,0-3.7,2.1-3.8,3.9
			h7.7C172.2,70.2,171.1,68.1,168.4,68.1z"/>
		<path fill="#454A4C" d="M183.2,78.5V62.4h1.8v6.2c0.9-1.3,2.3-2.1,3.9-2.1c3,0,5.2,2.4,5.2,6.1c0,3.8-2.2,6.1-5.2,6.1
			c-1.6,0-3.1-0.8-3.9-2v1.7H183.2z M188.5,77.2c2.4,0,3.8-1.9,3.8-4.5c0-2.6-1.4-4.5-3.8-4.5c-1.4,0-2.9,0.9-3.5,1.9v5.3
			C185.6,76.4,187.1,77.2,188.5,77.2z"/>
		<path fill="#454A4C" d="M196.4,72.7c0-3.4,2.4-6.1,5.8-6.1c3.5,0,5.6,2.8,5.6,6.3v0.5h-9.5c0.1,2.2,1.7,4,4.2,4
			c1.3,0,2.7-0.5,3.6-1.5L207,77c-1.2,1.2-2.7,1.8-4.6,1.8C198.9,78.8,196.4,76.3,196.4,72.7z M202.2,68.1c-2.5,0-3.7,2.1-3.8,3.9
			h7.7C206,70.2,204.8,68.1,202.2,68.1z"/>
		<path fill="#454A4C" d="M209.7,77l0.9-1.3c0.8,0.9,2.2,1.7,3.8,1.7c1.8,0,2.8-0.8,2.8-2c0-2.8-7.2-1.1-7.2-5.4
			c0-1.8,1.6-3.4,4.4-3.4c2,0,3.4,0.7,4.3,1.7l-0.8,1.3c-0.7-0.8-2-1.5-3.5-1.5c-1.6,0-2.6,0.8-2.6,1.8c0,2.6,7.2,0.9,7.2,5.4
			c0,2-1.6,3.5-4.6,3.5C212.5,78.8,210.9,78.2,209.7,77z"/>
		<path fill="#454A4C" d="M222.3,76.1v-7.6h-1.9v-1.6h1.9v-3.2h1.8v3.2h2.4v1.6h-2.4v7.3c0,0.9,0.4,1.5,1.2,1.5c0.5,0,1-0.2,1.2-0.5
			l0.5,1.4c-0.5,0.4-1.1,0.7-2.2,0.7C223.2,78.8,222.3,77.8,222.3,76.1z"/>
		<path fill="#454A4C" d="M234.2,73.5v-1.6h5.8v1.6H234.2z"/>
	</g>
</g>
</svg>
